<mxfile host="65bd71144e">
    <diagram id="xItPMSI_iDfbpz5uQ21d" name="Page-1">
        <mxGraphModel dx="2742" dy="1775" grid="1" gridSize="10" guides="1" tooltips="1" connect="1" arrows="1" fold="1" page="1" pageScale="1" pageWidth="1100" pageHeight="850" math="0" shadow="0">
            <root>
                <mxCell id="0"/>
                <mxCell id="1" parent="0"/>
                <mxCell id="2" value="" style="shape=stencil(lZbdUttADIWfxrdnpNX+XlN4D2YIjYc0YUKg5e3R1mOIlkSd3vnv88pHR8c7yc3L9v55MwV6OR0PT5vf88NpO8mPKYR5v90c55MeTXI7yc3j4bj5eTy87h+W8+f7/mQ/+nV462/4s3CNUEKnAr0vV2JCan+v3C3Abt6fAxmlGCAJWnWAhsoGyIKaXSCJAUoEeyUltGyAqis4QG2IFmiMFh1AVbIltYLE14FCyFYlJgLRdSITJNolGtiRKRGq7ZzqQE4jooBtI2oFO4BUkAVK84EMsrrmBhIHKGMjUkV1VIphXCGqW5zO6W1pFggITklaQK4G0CKzs0KuaMkCGSE53lARrZlU6OB8dG+TXUFbGfyBoGFG6V8zykPjCLFcB87c/OkNWoPh8hI6MBbQofJa3UdysGtbX3FZJh36YUg1GJySeqzYkr6i53KrBeXbjFYnBjQa6wBofHozmhCHoVZZHTN1QP4HkDima09Dx0whrm7+BBKyE0yc1rQ+i43ofHRBtW4tDHHaEMYwzrym7cXn1ar2AxKvKXLteWuLSODg1ZNsYgRfUc0TWz831xQcR4GYkZweBxmBBHEmRz0x/Bm0AY6garpBofHfpgdfO47HebdbNizn98cdil5adjdy+wE=);lineShape=1;" parent="1" vertex="1">
                    <mxGeometry x="23.20607617242041" y="-11.999353985721825" width="0.3183066759794788" height="0.3192831343803299" as="geometry"/>
                </mxCell>
                <mxCell id="7" value="1" style="text;html=1;align=center;verticalAlign=middle;resizable=0;points=[];autosize=1;strokeColor=none;fillColor=none;fontSize=8;" parent="1" vertex="1">
                    <mxGeometry x="-6.48" y="-800" width="30" height="20" as="geometry"/>
                </mxCell>
                <mxCell id="22" value="u can remember this eg for BST" style="text;html=1;align=center;verticalAlign=middle;resizable=0;points=[];autosize=1;strokeColor=none;fillColor=none;fontSize=7;" parent="1" vertex="1">
                    <mxGeometry x="-25" y="-850" width="120" height="20" as="geometry"/>
                </mxCell>
                <mxCell id="23" value="" style="group" parent="1" vertex="1" connectable="0">
                    <mxGeometry x="8.370000000000001" y="-840" width="60" height="60" as="geometry"/>
                </mxCell>
                <mxCell id="3" value="4" style="text;html=1;align=center;verticalAlign=middle;resizable=0;points=[];autosize=1;strokeColor=none;fillColor=none;fontSize=8;" parent="23" vertex="1">
                    <mxGeometry x="11.629999999999999" width="30" height="20" as="geometry"/>
                </mxCell>
                <mxCell id="4" value="2" style="text;html=1;align=center;verticalAlign=middle;resizable=0;points=[];autosize=1;strokeColor=none;fillColor=none;fontSize=8;" parent="23" vertex="1">
                    <mxGeometry y="20" width="30" height="20" as="geometry"/>
                </mxCell>
                <mxCell id="5" value="7" style="text;html=1;align=center;verticalAlign=middle;resizable=0;points=[];autosize=1;strokeColor=none;fillColor=none;fontSize=8;" parent="23" vertex="1">
                    <mxGeometry x="29.999999999999996" y="20" width="30" height="20" as="geometry"/>
                </mxCell>
                <mxCell id="6" value="3" style="text;html=1;align=center;verticalAlign=middle;resizable=0;points=[];autosize=1;strokeColor=none;fillColor=none;fontSize=8;" parent="23" vertex="1">
                    <mxGeometry x="11.629999999999999" y="40" width="30" height="20" as="geometry"/>
                </mxCell>
                <mxCell id="16" value="" style="shape=stencil(lVnZUhtBDPwav6rm0hzPhPwHVZjgCgEKyPX36Y1rlh2N3eA3g6W1pqWWWrO7ePV6f/O83wX3+vby9H3/+3D7dr+LX3YhHB7v9y+HN3zaxetdvLp7etl/e3n6+Xh7/Pv5ZrFcPv14+rU84c/Rzzsnzi1uwf09/stJiP//8fXo8HB43Di0Jq0N9l5SI/ZVchrso7RE7IvEMZ4sLhN7lTg+v0otxD5I1jH+IJEcuDYJeXTIkjxxUPFhcACkTYmDs0cIKjWcdyjaU7Ri6qhDRtLGM0SVQs6Qk+iIUnKS6nkHBUrGQcWRkDRJ8KPDCvRJB3ytI6waxZPEIYBYRocsmTl4KSNKOFUliYvVhpSDFEIGoJ5GlLKKkkNHVKthQxXPfgF0HmEtToo77xCKqHEArMxBOx9XBwBNQgqhl9rqgN8kFAVd0pi40qiDn/JQvUQCKxhcTdMIlKIeiTMOqVfXaQeUtwkJmSYoeaA+HrpmKYRAaFumL9UihXRW73vbWh2qFHZo1yNeHRp1aJJH++Y6o043Pil1tPeUb6V/u9ojayQJWdp44JbEk66n/WmrvfYmdcbejW245d7JTzcYcQafIolQLdoawjANpAmH3ks29mzWuime1hE7Zx+tfeXPd9ae1YPrE2NjnwlnTsWfCWWgbKZ4WPd1XRhs7ckAmfpWW2fWGfs8nVcpniVN9qT+ne1yCz40/jrhyVQCZM2cX1KfeH629pXib/sD6pPGnyf8WX9wPZursntXw+cKol7oEKYMNIqQnyqOn9hNz+eInmAkZ5if7HmHmDKcaUX7yV4pPmGqCM6YNDOMMlJnBlP8y4UdpU54ZornZfZ+mpCYsST+YBkAe0fwj13pbSYY2xYhkgz+ucucMxPVaBpMYEfym6eOzrfLIt7wJUgl/AUaph68ZIJPtctxc1T1ga1jPUNhUZU4FRw0HCMMRJ9OKpFVKGRlmnQooxiEq6mhyvcBSOMyFim0NCsKqHXTJaDWqXCdhCL2Ac8cWq+CzcYRiQOIY6QQdhq2cSxMGCsDWxNb5FDa1fxC6OP5tEOzagWbnzJ16ftoWXfLQodTTHYeY3tlKMViBz72Y1at2MCNolM+P1Kyu6Xyy5m03g6tDoFqXo3TTUijLUmr3ZoQJOsxOVrZlRy9CcnNTsGoNNMldQZv7ouYUEb1m0sydGbmAAab3XIZjYTTS9saQwLLA7sX9HaZQ6diXQO7nt1e6T6NyWT6mFLphclX7cUmu4PD5Daz54OL02avET+8mDXaEeKKcG2xL9aexx/s85lUgH301p4luPVdeGNPiLkoren5hATvyunT9sXi/0E89cLzGtp/iGfT3UX5avb5rB4ufhPwCQd8eH/xcHd4eDi+t9h+b19U4F/Hlxzx+h8=);lineShape=1;fontSize=8;" parent="23" vertex="1">
                    <mxGeometry x="17.932651217599076" y="14.897707419116841" width="5.431624276708799" height="10.154772821743476" as="geometry"/>
                </mxCell>
                <mxCell id="18" value="" style="shape=stencil(lVnbUtwwDP2afdXYlnx7pvQ/mAHKTikwQG9/X6U79q7l5ATedhMfS9bNR8qBr94ebl7uDsG9vb8+f7/7fbx9fzjwl0MIx6eHu9fju/468PWBr+6fX+++vT7/fLo9/X+5WVYuv348/1p2+HPCOZKygIL72x54+f/g62n54/HpYrknlmG5pxK2lwcSHpYz5by9nInTsDxS4O3lQikOyzO5ur08UcjD8koBHLVQ8ONRPSUPTDOZ0gt5cFrP5Eb9faISASBSNdavFJG3qpWgHkEWXV6Ph1YjlwIA0RpVnSBIQpkAlSqKCU/exJBGFQJojI1+YKHqACDZQ3OmAKKaC0kYAeoHFKgaGqPjxENPS7B5JhpLCKCvx0NLIkkAEJtNOqBQAmaVTHGUEB0VYFapLdQ6IFAB0brsZyRgx+l+0UhIVIHjYk/IDihUQU7H2NzUAMlhldRKYwlLO4euxGPwJaEMHJd8K3IdkCiBQy8KjGZNBSaQKpBGK2VHARxaFTD5kDW80RkKudFKmWHVSJWSAQh0nCoQxkNnVRIBAlUjIcO6pApYlXAxzj0hG6BoaQNWysWGRgnQrEXdZCSoksCsuh+PsVQS9MOy31g1itZzcOfqfib4qmv1fB1QW53rAI0l4Ad9zUYCU0QADbXxDDW2cFwH6B1nVEpN5jogkzcSMiVgpVooGwkF8qpabfXWJxGppIBoASg0FkCdAOAM3jlyk06I7a2KQLVyASQLQFXg/PoSgFzdFbgEIM/1I3ZKdrbDFiJNp94RkXgCAC5wDoVLu2IJcQqOnfCbAXlHpWwBCcdrmjyHbrk63RBnmZuem8yK6vdik0mlPcDkh4ijr04qoZZjAUwSEInbSFLUQqwiyo5Sk69RD7EAggXUHcPOdQBLyGPOfSBL86zTTpZOKbFTaj4JUNY2FQ5Ey/SWssVMeRdKCZkKcoJcVK9S05vpXSnIc8p4TA4xdLXSC5tDAXftyTIUJRyCGIpMLKs0z2yRJnO7q8wMoi9P15bKhNSy2JQrDD2t1NJP1DIitit20pJxjio9tmy3s9N1gLOlSZVEV4RSfDbTnM671gHZkiZtImDnlGzw6ak8GhjNVnKw4murZbu/0irPOsBZ+qBKonxY+lXTzEWY07GPMjqA4SRBW95oGlIPgy9y4wq9qa5toLLVtptZxaIkAripz4/QcVIa3+kAhmNNydOswsNZokTLgFQmqt6iVholCM4H8bYYi5AggLPhLQF6mostZFzhVIqjpdOcmxm2RnFmJMo4p9lZK3HAA+Zs80G3YAQQC9AtUPUO3rKTZeaJGNPUzIUAezMfLcH3uBj7YMmJzy2ltkbT5p720jyzXr0twfIez8mmdhTPQ+2cIrdCu/EVwdyfmnygIAVyJg/IgYhwVvcApwHKG0dTOjgLcFYZHJ4T2e4jnY/ujkr1iu6oKjo7pXOwJk71R5fD3c0sth9mY3mwuiMC79pY6qPLDflwOzEj1k34qDLtDg35qW9yu8v1x/nz3/3x8fH09fDyvf1cqI9Onxr5+h8=);lineShape=1;fontSize=8;" parent="23" vertex="1">
                    <mxGeometry x="30.549319161748716" y="14.664387748581817" width="9.327314659266476" height="9.180336691045058" as="geometry"/>
                </mxCell>
                <mxCell id="19" value="" style="shape=stencil(lVnZUhwxDPyafVXJls9nkvwHVUDYCgEKyPX30WTLs2Nppwlve0hju61uHXOQq9f76+fbQ+TXt5enb7e/jjdv9wf5dIjx+Hh/+3J8008H+XyQq7unl9uvL08/Hm9O35+vF8vl0/enn8sTfp/8eqceF6/If06/MKXy74cvJ/uH4+PWvlFpk32g3IB9oTw/XygFYC+UebIvxBnYh/H3sG8UwH5apVbn/esTwIZaohBmh0QCVqjdrdAoMnDI4+/hECPEqDJJmR0KNdl3KJnSDJIEkgQc2N6CZGp93yFnKn1ySLpJcIYcKMxbSmls8qJDqsRzICV800nGNQ0HXRPBuux4PnROY5MXHaRSnUMjF0oAVgWxmBUaCYBVZNzrygYmrsAhkswolUAlAgemPkdrEWIAa+zjeatDogwOrYSMc2iUQgHwQYO5z7AWBRrcQ8yUjUOnhM6QiOctVQ1HoHpKyDrHUtVfAKyLKs7hXTWWEEoquzOsNUM+BD3iHBq1UAHhrSpkt1RhaARFfZaZ2oaY7zkYiqoWCtClUCzjGkOUgt70fHFN1RvEkmp1a9ahgdBQhzDzoUVqCFYZ+XJ1UNIilKKFVVNMQzcdqJtDZ+rYIZgVKgV0D4q6WQHrUndJt1MFC9QB4bDXtI20u1hC90gFnFgz6LyfnqBMphE0q33GgmEVScuaCp4fhjis9g1eALvzrkXEjr3J50sZB3jDNhUu9uC8bCU7MEOeqYM7QAcBxAOOrT0QYF29OHvASrZKtAAKAbIB0QdL9+zdeQsElN2FFYhncM/PgACOwIs9xCe6gMhwP1KdPRA5HnXQ1h7imR3+KDfxKDm29jDevD0iMNuuZYkfiH9y+HSMj+cL3I8p6/6DkPJBh+AlBe6IvaRAiWPH+IYZ5hmJGebt4XnZRxDe/4fsg72xXmGPFh0DCkxJYlsJTWGwHRrxu9oLxLM4BdLWAjCguohm2DG2kdA3JUQC+Kx83ZQoAdVlPCqS1aHAnKpVUzZVU4YRFFyvpYUcEnUtFQ0HtFREqqgO1YAUYa+l1astRgPe0ho0mwq8Ili19JzjruLMqjV+EevAiDjVTje07YjIoVnp0sYGth3d9SllXOVec2YdMpwMRDfdqAJRUvqbBKsNJqLDwn/TkTIMb62RgxmsdTiWWopw41DhaHCp8k2jn2HrpJw2Saokimh+wmPWuDpEmMYljLJ4Mw5BYylx3VxW4cEjHXOG3Eatujc0MuGd8ThEuj1DFghrEhutOeBuSCk6bylVGK2Z7TgkJSjGOQ9CrvNE3ICUdQ6wGUCiAlhDzdQjgicD1RUMGvAJJKyaBiabMS2CtXZLIJU2VPI0J/eq50gqta23K/C4ystJlJ1qwKJEawTTp+GUqDWLvbZRNu29TbCN5mgkL9s7SBkOK89dx8Ye7ccNNxm+HDh3HRt7hE+3s5937c38d81Eu/ZuPygenLYw1KJzT7CxRwUMO5ZpYwIOcNkB33C3J0Zl6nnOcLaH76M++n7sXXv9cH4Zd3d8eDi9y9v+b1/e6U+nF3/y+S8=);lineShape=1;fontSize=8;" parent="23" vertex="1">
                    <mxGeometry x="3.8340320949647584" y="35.31276923353448" width="8.214351275957045" height="8.922566345719154" as="geometry"/>
                </mxCell>
                <mxCell id="20" value="" style="shape=stencil(lVjbchshDP0av2oAcRHPafofmYnTeJrGGSfp5e+rrQd7Ebtn6zeb1QFdDxI7vnt/fnjb74J7/zgdv+9/HR4/nnf8ZRfC4fV5fzp86K8d3+/47ul42n87HT9fH8//3x4myenXj+PPaYffZ5yjKBMouD9twZV/C1/P4i+H15m4pxI7cU+e18XZijN5WRdPlHplErm4Li7kaideKAWgu+ray3tHqQJAJOEeECl4AKjkUg8QYrcOmBwUOkAIJAkAhFLpAQXawEwx9yEIFIENLM3EC6BQAG6NgUoPiJ4qOCFmqq4H5Kbkclo4Kr0N0wpIjBRtpHWlALem0vLyAhCKIHCpkvSZnX1TchGQA3HvpRypgtLRz6m3IRcSUDw5NxMv5eAoI5WEpHdrYQrArbqfmIJLVICXSqDae6lozYJcKuqT/gRxWCUNXJ9Loo4GXiqVfK+SxBaZZZLxlmUkkwMnCJMzKhXKIPlUAVMPUptVy4DcvN4A1cECEk3mPjWqhwWk+/me+eollMuA4WKokRxI78q2HmqCN4/uJz1V1gxvB/1siKyWFpllQLEVpysVqVSpGpUqZaRSbfvNAegGcs4mkyIQzywjBNTcolIClJoAbAEwOaolmgkASmiysafjmVmrCHcrIo9W4Gin0QqU4rW1I3PHbpwwhg5w0wTwFgDrWgHRAjKORB5UytjoPKb4RuSSBaCOZvLJELiNE+qtNtRBpbxBBHWIAzhhpUo3jJABsKHTEOqKeUCGEzYKQobsqzhyxfTT/1GkQyQ2mCONRoDL93aAdsMmwbVjRlYn2zXpFowCEYeqzsQoEEPHoWcyUslTNMykTRBqUcZQa6uIOw5vTghtNlrradiwq/b4wGjtmgwdq5JosNHG0OSS9mUo0tp6muHsquRybyl2TpEIqazk4YQAGwjtjw0dq5IRnRAs4auSKHBleBDQHh/OKdpbmhN05ASB0zmFexa4zhVrk5DvK07PRP2xjmKm4nIij8a/autBt0BMlnLLzdm8iK6UxLajSQkyn064PMy8SCWdodMwVRc0hofGQhdAaI5efhko9uLVlQjImLkNSrO3B3SPBrFzeyitdVx7P+E++aYXJsCtXmx7oisJ2OCjTe9pBQFcu8dnr0zooi62c9UFlHrDSwW8TNgWG8NJ0dus821yXBR3NsAOvpq4NrBdxRGfqri34nh3Z8QD1t2Ke+B31x4uZuKAqVU8G3EHd/fWVHRbOsuIDj6rqCPYikNHsvXMhvigDOAdTZFBGcCcNz5Qb4rrj+tb+NPh5eX8lD7/bt/Oden87s73fwE=);lineShape=1;fontSize=8;" parent="23" vertex="1">
                    <mxGeometry x="15.617109081743255" y="35.1377813278491" width="8.466778256069453" height="10.164234643380416" as="geometry"/>
                </mxCell>
                <mxCell id="67" value="1" style="text;html=1;align=center;verticalAlign=middle;resizable=0;points=[];autosize=1;strokeColor=none;fillColor=none;fontSize=8;" parent="1" vertex="1">
                    <mxGeometry x="60" y="-800" width="30" height="20" as="geometry"/>
                </mxCell>
                <mxCell id="68" value="4" style="text;html=1;align=center;verticalAlign=middle;resizable=0;points=[];autosize=1;strokeColor=none;fillColor=none;fontSize=8;" parent="1" vertex="1">
                    <mxGeometry x="86.47999999999999" y="-840" width="30" height="20" as="geometry"/>
                </mxCell>
                <mxCell id="69" value="2" style="text;html=1;align=center;verticalAlign=middle;resizable=0;points=[];autosize=1;strokeColor=none;fillColor=none;fontSize=8;" parent="1" vertex="1">
                    <mxGeometry x="74.85" y="-820" width="30" height="20" as="geometry"/>
                </mxCell>
                <mxCell id="70" value="3" style="text;html=1;align=center;verticalAlign=middle;resizable=0;points=[];autosize=1;strokeColor=none;fillColor=none;fontSize=8;" parent="1" vertex="1">
                    <mxGeometry x="86.47999999999999" y="-800" width="30" height="20" as="geometry"/>
                </mxCell>
                <mxCell id="71" value="" style="shape=stencil(lVnZUhtBDPwav6rm0hzPhPwHVZjgCgEKyPX36Y1rlh2N3eA3g6W1pqWWWrO7ePV6f/O83wX3+vby9H3/+3D7dr+LX3YhHB7v9y+HN3zaxetdvLp7etl/e3n6+Xh7/Pv5ZrFcPv14+rU84c/Rzzsnzi1uwf09/stJiP//8fXo8HB43Di0Jq0N9l5SI/ZVchrso7RE7IvEMZ4sLhN7lTg+v0otxD5I1jH+IJEcuDYJeXTIkjxxUPFhcACkTYmDs0cIKjWcdyjaU7Ri6qhDRtLGM0SVQs6Qk+iIUnKS6nkHBUrGQcWRkDRJ8KPDCvRJB3ytI6waxZPEIYBYRocsmTl4KSNKOFUliYvVhpSDFEIGoJ5GlLKKkkNHVKthQxXPfgF0HmEtToo77xCKqHEArMxBOx9XBwBNQgqhl9rqgN8kFAVd0pi40qiDn/JQvUQCKxhcTdMIlKIeiTMOqVfXaQeUtwkJmSYoeaA+HrpmKYRAaFumL9UihXRW73vbWh2qFHZo1yNeHRp1aJJH++Y6o043Pil1tPeUb6V/u9ojayQJWdp44JbEk66n/WmrvfYmdcbejW245d7JTzcYcQafIolQLdoawjANpAmH3ks29mzWuime1hE7Zx+tfeXPd9ae1YPrE2NjnwlnTsWfCWWgbKZ4WPd1XRhs7ckAmfpWW2fWGfs8nVcpniVN9qT+ne1yCz40/jrhyVQCZM2cX1KfeH629pXib/sD6pPGnyf8WX9wPZursntXw+cKol7oEKYMNIqQnyqOn9hNz+eInmAkZ5if7HmHmDKcaUX7yV4pPmGqCM6YNDOMMlJnBlP8y4UdpU54ZornZfZ+mpCYsST+YBkAe0fwj13pbSYY2xYhkgz+ucucMxPVaBpMYEfym6eOzrfLIt7wJUgl/AUaph68ZIJPtctxc1T1ga1jPUNhUZU4FRw0HCMMRJ9OKpFVKGRlmnQooxiEq6mhyvcBSOMyFim0NCsKqHXTJaDWqXCdhCL2Ac8cWq+CzcYRiQOIY6QQdhq2cSxMGCsDWxNb5FDa1fxC6OP5tEOzagWbnzJ16ftoWXfLQodTTHYeY3tlKMViBz72Y1at2MCNolM+P1Kyu6Xyy5m03g6tDoFqXo3TTUijLUmr3ZoQJOsxOVrZlRy9CcnNTsGoNNMldQZv7ouYUEb1m0sydGbmAAab3XIZjYTTS9saQwLLA7sX9HaZQ6diXQO7nt1e6T6NyWT6mFLphclX7cUmu4PD5Daz54OL02avET+8mDXaEeKKcG2xL9aexx/s85lUgH301p4luPVdeGNPiLkoren5hATvyunT9sXi/0E89cLzGtp/iGfT3UX5avb5rB4ufhPwCQd8eH/xcHd4eDi+t9h+b19U4F/Hlxzx+h8=);lineShape=1;fontSize=8;" parent="1" vertex="1">
                    <mxGeometry x="92.78265121759907" y="-825.1022925808832" width="5.431624276708799" height="10.154772821743476" as="geometry"/>
                </mxCell>
                <mxCell id="72" value="" style="shape=stencil(lVnbUtwwDP2afdXYlnx7pvQ/mAHKTikwQG9/X6U79q7l5ATedhMfS9bNR8qBr94ebl7uDsG9vb8+f7/7fbx9fzjwl0MIx6eHu9fju/468PWBr+6fX+++vT7/fLo9/X+5WVYuv348/1p2+HPCOZKygIL72x54+f/g62n54/HpYrknlmG5pxK2lwcSHpYz5by9nInTsDxS4O3lQikOyzO5ur08UcjD8koBHLVQ8ONRPSUPTDOZ0gt5cFrP5Eb9faISASBSNdavFJG3qpWgHkEWXV6Ph1YjlwIA0RpVnSBIQpkAlSqKCU/exJBGFQJojI1+YKHqACDZQ3OmAKKaC0kYAeoHFKgaGqPjxENPS7B5JhpLCKCvx0NLIkkAEJtNOqBQAmaVTHGUEB0VYFapLdQ6IFAB0brsZyRgx+l+0UhIVIHjYk/IDihUQU7H2NzUAMlhldRKYwlLO4euxGPwJaEMHJd8K3IdkCiBQy8KjGZNBSaQKpBGK2VHARxaFTD5kDW80RkKudFKmWHVSJWSAQh0nCoQxkNnVRIBAlUjIcO6pApYlXAxzj0hG6BoaQNWysWGRgnQrEXdZCSoksCsuh+PsVQS9MOy31g1itZzcOfqfib4qmv1fB1QW53rAI0l4Ad9zUYCU0QADbXxDDW2cFwH6B1nVEpN5jogkzcSMiVgpVooGwkF8qpabfXWJxGppIBoASg0FkCdAOAM3jlyk06I7a2KQLVyASQLQFXg/PoSgFzdFbgEIM/1I3ZKdrbDFiJNp94RkXgCAC5wDoVLu2IJcQqOnfCbAXlHpWwBCcdrmjyHbrk63RBnmZuem8yK6vdik0mlPcDkh4ijr04qoZZjAUwSEInbSFLUQqwiyo5Sk69RD7EAggXUHcPOdQBLyGPOfSBL86zTTpZOKbFTaj4JUNY2FQ5Ey/SWssVMeRdKCZkKcoJcVK9S05vpXSnIc8p4TA4xdLXSC5tDAXftyTIUJRyCGIpMLKs0z2yRJnO7q8wMoi9P15bKhNSy2JQrDD2t1NJP1DIitit20pJxjio9tmy3s9N1gLOlSZVEV4RSfDbTnM671gHZkiZtImDnlGzw6ak8GhjNVnKw4murZbu/0irPOsBZ+qBKonxY+lXTzEWY07GPMjqA4SRBW95oGlIPgy9y4wq9qa5toLLVtptZxaIkAripz4/QcVIa3+kAhmNNydOswsNZokTLgFQmqt6iVholCM4H8bYYi5AggLPhLQF6mostZFzhVIqjpdOcmxm2RnFmJMo4p9lZK3HAA+Zs80G3YAQQC9AtUPUO3rKTZeaJGNPUzIUAezMfLcH3uBj7YMmJzy2ltkbT5p720jyzXr0twfIez8mmdhTPQ+2cIrdCu/EVwdyfmnygIAVyJg/IgYhwVvcApwHKG0dTOjgLcFYZHJ4T2e4jnY/ujkr1iu6oKjo7pXOwJk71R5fD3c0sth9mY3mwuiMC79pY6qPLDflwOzEj1k34qDLtDg35qW9yu8v1x/nz3/3x8fH09fDyvf1cqI9Onxr5+h8=);lineShape=1;fontSize=8;" parent="1" vertex="1">
                    <mxGeometry x="105.3993191617487" y="-825.3356122514182" width="9.327314659266476" height="9.180336691045058" as="geometry"/>
                </mxCell>
                <mxCell id="73" value="" style="shape=stencil(lVnZUhwxDPyafVXJls9nkvwHVUDYCgEKyPX30WTLs2Nppwlve0hju61uHXOQq9f76+fbQ+TXt5enb7e/jjdv9wf5dIjx+Hh/+3J8008H+XyQq7unl9uvL08/Hm9O35+vF8vl0/enn8sTfp/8eqceF6/If06/MKXy74cvJ/uH4+PWvlFpk32g3IB9oTw/XygFYC+UebIvxBnYh/H3sG8UwH5apVbn/esTwIZaohBmh0QCVqjdrdAoMnDI4+/hECPEqDJJmR0KNdl3KJnSDJIEkgQc2N6CZGp93yFnKn1ySLpJcIYcKMxbSmls8qJDqsRzICV800nGNQ0HXRPBuux4PnROY5MXHaRSnUMjF0oAVgWxmBUaCYBVZNzrygYmrsAhkswolUAlAgemPkdrEWIAa+zjeatDogwOrYSMc2iUQgHwQYO5z7AWBRrcQ8yUjUOnhM6QiOctVQ1HoHpKyDrHUtVfAKyLKs7hXTWWEEoquzOsNUM+BD3iHBq1UAHhrSpkt1RhaARFfZaZ2oaY7zkYiqoWCtClUCzjGkOUgt70fHFN1RvEkmp1a9ahgdBQhzDzoUVqCFYZ+XJ1UNIilKKFVVNMQzcdqJtDZ+rYIZgVKgV0D4q6WQHrUndJt1MFC9QB4bDXtI20u1hC90gFnFgz6LyfnqBMphE0q33GgmEVScuaCp4fhjis9g1eALvzrkXEjr3J50sZB3jDNhUu9uC8bCU7MEOeqYM7QAcBxAOOrT0QYF29OHvASrZKtAAKAbIB0QdL9+zdeQsElN2FFYhncM/PgACOwIs9xCe6gMhwP1KdPRA5HnXQ1h7imR3+KDfxKDm29jDevD0iMNuuZYkfiH9y+HSMj+cL3I8p6/6DkPJBh+AlBe6IvaRAiWPH+IYZ5hmJGebt4XnZRxDe/4fsg72xXmGPFh0DCkxJYlsJTWGwHRrxu9oLxLM4BdLWAjCguohm2DG2kdA3JUQC+Kx83ZQoAdVlPCqS1aHAnKpVUzZVU4YRFFyvpYUcEnUtFQ0HtFREqqgO1YAUYa+l1astRgPe0ho0mwq8Ili19JzjruLMqjV+EevAiDjVTje07YjIoVnp0sYGth3d9SllXOVec2YdMpwMRDfdqAJRUvqbBKsNJqLDwn/TkTIMb62RgxmsdTiWWopw41DhaHCp8k2jn2HrpJw2Saokimh+wmPWuDpEmMYljLJ4Mw5BYylx3VxW4cEjHXOG3Eatujc0MuGd8ThEuj1DFghrEhutOeBuSCk6bylVGK2Z7TgkJSjGOQ9CrvNE3ICUdQ6wGUCiAlhDzdQjgicD1RUMGvAJJKyaBiabMS2CtXZLIJU2VPI0J/eq50gqta23K/C4ystJlJ1qwKJEawTTp+GUqDWLvbZRNu29TbCN5mgkL9s7SBkOK89dx8Ye7ccNNxm+HDh3HRt7hE+3s5937c38d81Eu/ZuPygenLYw1KJzT7CxRwUMO5ZpYwIOcNkB33C3J0Zl6nnOcLaH76M++n7sXXv9cH4Zd3d8eDi9y9v+b1/e6U+nF3/y+S8=);lineShape=1;fontSize=8;" parent="1" vertex="1">
                    <mxGeometry x="78.68403209496475" y="-804.6872307664655" width="8.214351275957045" height="8.922566345719154" as="geometry"/>
                </mxCell>
                <mxCell id="74" value="" style="shape=stencil(lVjbchshDP0av2oAcRHPafofmYnTeJrGGSfp5e+rrQd7Ebtn6zeb1QFdDxI7vnt/fnjb74J7/zgdv+9/HR4/nnf8ZRfC4fV5fzp86K8d3+/47ul42n87HT9fH8//3x4myenXj+PPaYffZ5yjKBMouD9twZV/C1/P4i+H15m4pxI7cU+e18XZijN5WRdPlHplErm4Li7kaideKAWgu+ray3tHqQJAJOEeECl4AKjkUg8QYrcOmBwUOkAIJAkAhFLpAQXawEwx9yEIFIENLM3EC6BQAG6NgUoPiJ4qOCFmqq4H5Kbkclo4Kr0N0wpIjBRtpHWlALem0vLyAhCKIHCpkvSZnX1TchGQA3HvpRypgtLRz6m3IRcSUDw5NxMv5eAoI5WEpHdrYQrArbqfmIJLVICXSqDae6lozYJcKuqT/gRxWCUNXJ9Loo4GXiqVfK+SxBaZZZLxlmUkkwMnCJMzKhXKIPlUAVMPUptVy4DcvN4A1cECEk3mPjWqhwWk+/me+eollMuA4WKokRxI78q2HmqCN4/uJz1V1gxvB/1siKyWFpllQLEVpysVqVSpGpUqZaRSbfvNAegGcs4mkyIQzywjBNTcolIClJoAbAEwOaolmgkASmiysafjmVmrCHcrIo9W4Gin0QqU4rW1I3PHbpwwhg5w0wTwFgDrWgHRAjKORB5UytjoPKb4RuSSBaCOZvLJELiNE+qtNtRBpbxBBHWIAzhhpUo3jJABsKHTEOqKeUCGEzYKQobsqzhyxfTT/1GkQyQ2mCONRoDL93aAdsMmwbVjRlYn2zXpFowCEYeqzsQoEEPHoWcyUslTNMykTRBqUcZQa6uIOw5vTghtNlrradiwq/b4wGjtmgwdq5JosNHG0OSS9mUo0tp6muHsquRybyl2TpEIqazk4YQAGwjtjw0dq5IRnRAs4auSKHBleBDQHh/OKdpbmhN05ASB0zmFexa4zhVrk5DvK07PRP2xjmKm4nIij8a/autBt0BMlnLLzdm8iK6UxLajSQkyn064PMy8SCWdodMwVRc0hofGQhdAaI5efhko9uLVlQjImLkNSrO3B3SPBrFzeyitdVx7P+E++aYXJsCtXmx7oisJ2OCjTe9pBQFcu8dnr0zooi62c9UFlHrDSwW8TNgWG8NJ0dus821yXBR3NsAOvpq4NrBdxRGfqri34nh3Z8QD1t2Ke+B31x4uZuKAqVU8G3EHd/fWVHRbOsuIDj6rqCPYikNHsvXMhvigDOAdTZFBGcCcNz5Qb4rrj+tb+NPh5eX8lD7/bt/Oden87s73fwE=);lineShape=1;fontSize=8;" parent="1" vertex="1">
                    <mxGeometry x="90.46710908174325" y="-804.8622186721509" width="8.466778256069453" height="10.164234643380416" as="geometry"/>
                </mxCell>
                <mxCell id="75" value="" style="shape=stencil(lVjbUlsxDPyavHrku/1M6X8wQyiZUsIAvf195aYOx+ucPc1bCNpYsnZlSTt/8/Z497LfOXl7fz1+3f883L8/7vynnXOH58f96+FdP+387c7fPBxf919ej9+f709/v9w1y/bp2/FH+4VfJ5w1LjWQk9+nL8SI+/vF55P50+F5YZ6MVDBPed3cOhPHn7dGErHPpkSwd+T3XTDFgn2o6/beG+vBPhF/gvqP/mTy+9EZKWD/L6DL12lNdGhf1u2zmCBoT/zJxfjJH2JfovHoTyX3U8XU0d4Z74l9NG7Ml6f5raWzsdsHU8l91mpiGOyz8SReK0p3uFANiWRAT0CGRhNZCNW4MQVNAyyGYtzo0kYQNZk8ktoH4xggooqD5QCPMg5nJy8DVAd5AMTYL3qNSHk8QaUhhElFMz0GnZIJhKpFpQDU0FoRCCD3UnIGRCrOkkwZE1eUXeyEZOx4S8WbQrik8gT5q5PREkBAarSLJvVdHajjLWnuE8uDVtTRJaWjsBicCWMJqNlUFoPtkj8DVFIsBkFqKCAxQOhUW8SQWaZVXxMgcUC0E4DoQQFlOoGVGaWGTROAuRS7XJYusUxHk6cYKJfOclkACj8BM53o89MAE5eEv29QZhTgGPnixCUtxixx+sKFCcBiCBdi8Btcqlee4OWqGAJW73ZLDDBXjdwboVXAxCX2sDfAzCWu6VkPmZdKrEtpq2pkh4ANxclE7w1N+zy5xNmawgTgLpUJwBrcprgJUHkRqJOAWPvTXHIIsPyWrgS4HuLifYiM3tIL40eTKLSdUQSMVXqE5W8WPtS5jzZrr2KAqCNtXDVqdOnc1a1JTiDVQoclBcAD0VoolmqV3Cjq1v/wB8KOJ+RqKqcrzIeth2MnqF5GjWqXSKvxNLG2PpRRo2JxTTpxsAFCcIaLG0OQ7U3kolu3pA9VIkDpa/MAH+OAGj5wQML+p800LIaMj5zj84BOTVDv21zGRledB2B1oCcQxbU2dXxGcx82V2OGvNFXtwZ0iIuhqRHmxC0tuAz2ifjfdgdoz16rLH1K/T/7tvtA/1nC2m4loT25n+Cwupy/WNsNAaldnxjXdk8J78eyXUPuT/Fit8J3Z66CfSb2ESVme/4umgsWOn2BSLTSK/nCnJBZkGtCuSa4lhNKHcFMCc3stOMRuk8R3DkJ1a3MK1FHXnrBDZjQ2jwVf6GNtWDNEVo1BTcWvK2xOCdvmV+1W9401w8fa+yHw9PTaQu+/D+uvfWr08rc3/4B);lineShape=1;fontSize=7;" parent="1" vertex="1">
                    <mxGeometry x="114.97168212879365" y="-814.3228078202162" width="2.890438299150524" height="7.284168863150099" as="geometry"/>
                </mxCell>
                <mxCell id="76" value="" style="shape=stencil(rZfbbtswDIafxreEJOrE6657jwJNl2BZUqTZ1r79qBlOS6b+gwG7c5yPsnj4SWniu5ftw/NmSuHlfDp+3/zePZ63E3+ZUtodtpvT7qxPE99PfPd0PG2+nY4/D4/z7+eHQY6nH8dfY4XX2S5QbsMohbf5hTCV/PfN15nf7w4f+EotGL4JtbTOx0JNjEHtxGHdIDGFag0CSVs34EjVulASMdhSjpSLMchMta4blOid5kKBQZAiSTcGqVGI6wYtErMxiEJdgIFQsVGKTA340JtPtL4AeZZOkg0fKICgilC64tH66gA7noHDyjfn8K39iIso9Q7qNOh+bZITdRDQ8QGbY6YOylT5bh3I1EFJKF8tX5aUr/HshEYB7ycGxye0fqfu+Qg0oLxLcKEKEqA8RxcfwfuJ3fGhYN4WKN/kbTzTLZ7t+pEiir/GxwpSWzESgMb/SmBYMPGKB31X+ez5hAVcxfEN76d3F5+C61N8/Auot08EjCfZ+IAvuIIF2XxBM14/i+MFCUY76JUg/yOvE0AsryOjgIrWGSO2QnUoCSghnWLNDtbRg9BhIlG2KWBeVP35JE6Lpi45i0sU1ma9G2NZYFvntATxkjUVKhg0WmXVGtRGCYQ1Vl8XLeM8UE+G7wWObj0PWZdHJSLl+CQMqQIhaF9zkzjg1hK80N61vcK7yTekB1pF8J1rzEKQ47Dk58J32LoCxej5AKo0LIfDC68VAffvGpdUmLDr9fVoAPcTHZ9v+Ju65yPM77/dIW7z+vB+YXna7ffzfefj//6Co6/myxHf/wE=);lineShape=1;fontSize=7;" parent="1" vertex="1">
                    <mxGeometry x="115.71525311444611" y="-810.859412474701" width="2.63107060541617" height="0.7828616038320004" as="geometry"/>
                </mxCell>
                <mxCell id="77" value="" style="shape=stencil(7VtJchw3EHwNrwjsy1mW/6EIUSbDMqmgKC+/d8ITaDYS3dmyTz7oRo2QA6DWrELNXXj39eHDl/s7b7++vjz/ev/H48fXh7vw0533j08P9y+Pr/jrLry/C+8+Pb/c//Ly/O3p4+3fXz70lf2v355/79/w5w2Xogmxo7z96/ZJ9Cbafz75+Qb4/PhEgDwD7PiKM4CrEyDU8RXHAG8aAZIp6kjOVAJE45MAWBPLDPCmlHNArKbaGeBM9AKQTZ2lFKw8Uowmtwngm97BG5dmQDVZiDW0ZYdqfBCAwlLqAKEHqMlbBiRhGl3qji8dhB4gRGtZrOrSviwAL63VB9MC21IUUvLOWD8DsKc4kiumzIqDAzknAHHIZAMEeQfnjJ81DXOM9RwAw6ENmkntfD2+bVYbXDaJK8O25xunNGzxWM3GzzEp1aGVYx2wK2RvrLivY7PLsFxhds7kOb7kOm50sr7N8i84ofBlb/JsQiWNT07kk2b5lDYkcCJ/srjqhwZP9OtnH6hpWNSJ/ZD8axkR+Vg+dohjAJqVAnJw2lmiDRpWGoimzipuYQjhzCvjfOeWjBU24ZH1aIdsnDJSOK1nQBNH6m5GgCLd5i14boCLCL+KFQFbKA4RnjwfgKxSQjUxM0Al/+iYXuDSVaVmBOzCACuiI2Jhph1AL4SUEAzjnEO6LSk+4hc9WFOFeSMcxtmhq84hiIekOHi0yoMZYp3vUIpUXI6c1hDDrAJkk+Yd8InSQ64cxbKVHlfskhai5CMFHI0yLfYUesAVSUqwLqeO5Ided9zWi8hawpDJBggjUp0B3AyAl1cRBDpgTlY9jgjz7gDihUFGewCY5llJ8/qlZym5KsM9xEoJyyXpQF1xc1xyYQSeM9MgQg/SpKwVAE85zmSlN8tsG9lBHWhJiTrGZASl+fudtCN4W+P10p2xfo6Sdkjs7DxEtK2UT1/faL0qd7CenB/RQAW8xvncyuyM9ZnvK6NXM83xehWL7Agk370+Lt8vyEK3N5aPooTFcuSCPEXmx/rFHqL6fjeOu7MHFYU2c3mz/6j80XJNoTNmP/8sf3BKmW3cyI+7oBWUxhCDqCBPg/GdhUUihL0eVjqInPVROcpLJ5NmocairS6zFaWgzaKME+9KtaR2QFyZL41aTeWzul1xxyuyUFx1zL6ge6UHUKdE5VrQO4TRLNoA2RShB5RPdpYSCjZl3TWzN+BWVbhPrUt6CqOLdgxoo/bY1XhKD81xgARHVY3CFriziENGIdbWmCbUJkktAFQrAKCYPAAUNABQhSoAdWHyVkmpce8SgCDiZAc0BqjavzVudvbiQt+BujtQpVOKa0tV6GTvsisuMSAoPdTBbfYAdem6VFQ4kga4ZQeVP1E0Uly6qNl6WRoZkPQOqy2p2Io7WMcAxUnaGgTaOOQZIK0OpEwD0dsy4MJF1yPJHdrBkaQeGjP5LiXBPLvH5UUPqmFrl65zV7WOM9REBqDosFEWD7J6h7j6qL61WzwoKEBlgnjt1P8SsLRJa5Nt1a4nyopV7tATDu2wEZyzvFsIEDUgjdb9vrUq7BtpOc1SAhVoCuBZceBcqpIBYaIUVLZezjEla4O87AiT4j/gcFRbgZI1BSijvb4Bgq5OMosVtLKoO0SmMyCuimyA4lHYADW+aPXwI4nVrR5n0vLI2NQdtvyxKyAUS8xL1ECJclFEE5d2Xuqhv3PMmi6SOuS6PKxK9vOjK/GjK/G/7kostaTTUcWNGmrXxVAFuufnkTQUeNpJpZc5+V6O9VTaOs1qEUeJN7sgn0YBSPOJXBqvq2eAQoCqmxiRefNVuzny7MVVQxsACrxZN5+W10XftN4ivzj3tr++NDGXPjSjFBfYE/qQwEXbnxJglcVzt+1ZDynKqYI1uGQruVFeiras9ZAT9+jeHOoY4Nk0wGVUAE5LQK3aH1JeKqQiR4vAUwrVkU6WVGmJqS3KkgrEhroe/eFZPXjGpWNQpeKiW8qXJqUEY+Y7NPk8HxL3JHZV2THCLzMGTT+3V6aQb7XoMSAtLYOqd1ietZoeqHJtvMZvgCKLNpe54duHEtRkS1g6MVGGb+d41qNpVlsX87Yj2h67KB+o6jfbyLM5KMmUvy3vqSiwVO/WsT+XJn1hYSQlSYpq+REAIUyVFUsvIldZoVp+cEbQVG+vlvN5dnpwZpntqsMGz+Q/nz8laaEo7OhFwsl6ufDsUp/dVB0q1m9MsviFx5AC+sCsGnbK3KUOTU7lwOv5KexissizDoLO/Yhc1OYIuiUML67LFIIM8I6fSKAYVcCHZUbtLRIcAwqPjwCgLt3LdcsANRgBvVJxCoAKdXERa7+08AWYZqBZjSoByfKkYNAFWB/MpHkTJye8+rQ2zb9u05jHgCUzhyizIBiSJ3/I0jQA4EvrsTYAqIq8GlHPbN5XQ/B56R55WUimJa0BoNIgABSHY5ClPwAHs0ui6gHALjuoB25omlJ5Byimuoy1XQOIXFwdKfJj2NWlIzdUrsS61Tjfq7jIPn1lGv/lFxgXAPzx9oOPT4+fP99+L7L/f/6BCD66/bgkvP8b);lineShape=1;fontSize=7;" parent="1" vertex="1">
                    <mxGeometry x="13.208262246621643" y="-773.4213452699341" width="4.472883233284752" height="5.776632638171339" as="geometry"/>
                </mxCell>
                <mxCell id="78" value="" style="shape=stencil(lVnbclMxDPyavGp8vzwX+I/OUGiG0jKl3P4emeAkXp1s2rf2xHuOZUmrlbyLN9/vb7/d7YL7/vL89OXu1/7jy/0uvtuFsH+8v3vev+hfu/h+F28+PT3ffX5++vH48fD/t9uxcvz19enneMPvA84nyX2ggvtzeBKd5PDvyYcD4GH/eAYITnxcAUFSI4As0a2AKDkSQBfvV0ASRwD6vtYQUDIBdMnwhSyeGJ2ypIqAnC4DspMaEZA6AWQJAW3ojgC68UOUTmwowfiBO65kcbAlJ4V9oUrICyA0icTo0iSvW9JgaWxLavTqhxDmQV8ChPULXp8UuqWUVkARV6nRcTXaB+lsS1nqeqzeSSSxVOIMtQlo06jt9U7aur5IIibnOr0612dqcdY4WykjSSAGpy4d0lMq2b8mW4DIlkD2k5SRyhvWn8jhtJ6FtR53r2BvZOvVvAbn+Z9uNtdrRLrVX3Wm9vb6JG3df6fk5b2E1V/6JJMsa1JWe/WLNO+lQMq0SWbbASRxZV9N4sQcPMPluL7ygJNkiY6UAw3fdf+xSiMJkzDekmYofT+wnGZEJPvXSrGejxYHFhBF+hoPygCV7F/DBfhBWZfQtIYLEER1tL4OUbGeUD3KjG1AE78eUdUQIjmjERPWLzTPVUiZR3IEaJgwUeElAqDMvN4GFIlr2rdGC0Hy6LfuZ8XdBjRx65Z6kMaYOqEw6prJrL76GQhHgFY/4getr7ilMtlyE1CLeNjSsYBuk1HCkq8AFq36szc2FGKDArpDQCY29IaaeXyB2ND7DOYzQCOhoYBijPbMBq2xCQGJiIoB6OZY+Rca2NAmD14CJANgOkR/xrqmlYh5uplYatyGOjfwWoCmfEcA0y4KQE83yks9bx0rBxQAVB5LGcvz6RguATAfuCBRo6MhgcbyQTnCAGgCqUQ1gCspGqv5Ag9vaHZ64UW0oyrXTTKqHAlkmY/pPOfEGUfQhOiGvrVkcGLKJiEiO9c+33eeo6RmjfA38c3K6JsBLRq5ejq47RpkOrBxDkzgNuOIzptCt2GEYz2Y9oymQhSmQdUGCPBEcy52VExDPDA9Ew1ZOrql0ZYaARSJH8JRNh8Bmca3ykRQTC3QTmYI0fWUaqd1VFvxBsr12K1sxxL2etVPvXJB20OvUQolgYC9s0o0R+q6RxGaM/WBCdTRmxAXGEpKkQ7CzPrRW/H10IuF2c1dWA8SYDTPdH0xvSdttqVCb1snZW5njSEjPuwsU4+fenmWlCM+1/cX2mP4jPvXBoCFm5kV8PmanjYMRv0kgYuj2nW246hMtbMdTu2pYO/vaEuVPbaFjs91VdgEsJd1L5qtOLuQyvopI9aujF4a7r/Q5miwE9QZOpauAfnNB9o214jSboQgI9CEEe07bf2VkD1MmSP18Zg9AEcUWmbUaJBRV7KyOlRFylrUbUYxj2n/lTiCCwh1NLseKDizUeLt/MYCIjs2ynTJjOUGgOV+w2KsTzzxgx4ikJHawLovZSOofnpKnXxBIwcvUQqdHfsy71jOHUdOaQxfzTWNYxrHYQXRY2DCTgHBBB8bR9pxfKD3CaZviZ43nCjSdD3rN4cBDgFXRBoU8ehoMqgTgDIip3kFVHMrGpkNYdLoGYAGUjRx4ejFlAJgwjO2dGUI+6ab3VcA9I/TRfKn/cPD4R76/He8eNZHh0vr+P4v);lineShape=1;fontSize=7;" parent="1" vertex="1">
                    <mxGeometry x="18.750720627595" y="-771.948523702212" width="1.9004481703906542" height="3.718176489300083" as="geometry"/>
                </mxCell>
                <mxCell id="79" value="" style="shape=stencil(nZjbUhsxDIafJrca2/LxmrbvwQyhZEoJE+jp7ftvg5NYJv8OvVsWfbF1lnajNy8Pt8/bTXAvr4f9t+2v3d3rw0Y/bULYPT1sD7tXPG3080Zv7veH7dfD/sfT3fHv59tFcnn6vv+5/MLvI+dVcl6o4P4c3zip8d+LL0f5x93TKB/jIK/SGpGv0uog3yS66/Kh9OO7vE9SCKCTAtBAyY20SdERyBL0OhCT1FEFDVL8dSAFcWUEmijRIRXxbgBw5ptW7wLZWS8kLy0QwEsdrYQzayJAkDgCGZ6vFHizyQmokohZAdQRKCqOhN4CjFcqRRxTGsDohwq7kdBYgNHTVSUxQCWMOlQeSwBKGAFYiSkd7QnN0XwAkMfQaNCKAUV0tFKLkoinixeXRiCLIyfUIsFcCcFHHAcVvVqgECs1tQm0AIUAqV/gAmAJ1GoPtRNQxZMUbc0mEACWQN65bsULguUojkjGc61HyzUlglqARR8c670FCkkIOCJOJzSmg+tGOdX7sx2uRdOsdSM5V2PvUJdKEK2R9NbXcCaJpjpVVwCeXclLNilUabzW0HvaZTQRV0Np5y3gmVmzqLlS6dXwfQAqTkBhrg7ip5yjAByXpyuxnEMpm3LOsTLQxFULKAeaWqCwutGmQoMzWQadAuEy+EgsIUfrHN7sSnEq+NCKlY2PAglNywCZthRMLzY0Ig2+CCMaT/MuByAaK/E+CsAMriudOjl7wsosAMAMQCvTxgKMDWJlngFQRh1WJqYFGMN7ZSYDkOepjwOmzGAkStwPxYy66NQMQAaPsbTM40TpGK2nl4mfrRytjwoX8z3rD8uOYhaC0JP22hYURythR2FFIHjR0Q/YgjJRGluVKZV404gOmATsHpeJjZwEYyK6Jk6jD99C8etWPBPrTGlwWp/et42d0XEcqUWhDzhncU9+Pfa+fRZ3bBGbLcOmo2IHCy6OeXESJ5fxzi55XFePrTR+wJR+2thWPKV2yOaB8B9fO1bk8XD+tHK/e3w8fpm5/L/9FINXx884+vkv);lineShape=1;fontSize=7;" parent="1" vertex="1">
                    <mxGeometry x="22.151875228379822" y="-773.1806763432488" width="0.6186924746071415" height="5.019220680728111" as="geometry"/>
                </mxCell>
                <mxCell id="80" value="" style="shape=stencil(lVfLctswDPwaXTEkwRfOafofmYlTe+raGcd9/X3hUaWYoLhtbrK8K4LALghO/PC2f3rdTcG9XS/nr7ufh+frfuJPUwiH0353OVz1aeLHiR9ezpfdl8v5++l5/v36dEPenr6df9y+8GvmMRV/IwX3e34hjtL85vOMPx5Od3gfiNkSoowJwZF0K8QCCGUjpAAInEikI6QxIUbKuSFUoVzHhBTJu5ZQid2YkHn5eyUkqnFMKL4LSd+ATReh0G665CXITYIGwC0hC0VEEPKhJXiqICTRiNsVUqAcACFQTQ0h+kUsI0JpCeyIwQpaphLbFRatjPB/k74uAIWheGndECiieGQx14L3MH4VMrfxY3dqCTq8yzCh0Vk8kKkwRW/wkQE+Ls59328AmlN8rSafyPqSyLd4poTiUbxRHLSlxlPa+DPOZ9coCjmgH81nsPiC9hvIt/FU/H1vPVxIUPzO5qdQBPlRPXM2+Umg86pfjOPTIqihH229PPZ7bfWpLQboQeMPrX7WPjzKj7P+Kkg/zh5NbingqL4uGbxDfmFy9vsB69NZ/8KGG+1ZrEcA6J83f7V6Y3gofRgvtp/zqtjtccWtCVwVpDlDJVDJtS09pUWEoz2YHpczFWRKDblNaknQlTUs5+7qem1zgFCiHdJU6AUQsh6LbR208uig0ZyYRicFThNRCWZuFDik9VPdXS3/d3AUeNpvjKYCK7cx/OK89tO1wH6hhQ4Wn9E0TlK6pEJ8MPFXSmDDznpBq1xA0bT7mPgzzE9nTjUTmrd6vMoUmLmPh+Flpd9vwLehLp94au/r5eG81evBwV700dvcv/H68H51fDkcj/PN8/5/e9XUV/M1lR//AA==);lineShape=1;fontSize=7;" parent="1" vertex="1">
                    <mxGeometry x="24.82527539612579" y="-771.621284932856" width="1.3770618111236366" height="1.1160362970771183" as="geometry"/>
                </mxCell>
                <mxCell id="81" value="" style="shape=stencil(lVnJUhwxDP2auapsy5vOJPkPqhjCVAhDAdn+PnImbtpy95viNjR6bWt52vrAN68Pt8/HQ3Cvby/nb8dfp7u3hwN/OoRweno4vpze9NeBPx/45v78cvz6cv7xdHf5+/m2SbZf388/2xt+X3CcKaWGCu7P5UmgVP89+HKRfzw9reU9lWLknduXD4UkG/magHyizIM8kyB5ve4onyjyvrwXCqN8IQ/09YlqHOSFOAL50K/b5b0nKQDgKI4H+EgFnFCJZZQvlPK+fKYyygfX37Apn4jrKM/kw7587PZY5BMV4AGmbOQrZRBBTDwGkIZgBPZhCmOAciQP7MM2IJQSghhA0dxHuoV35Ksf5GOgDO4TrX9jgoxRf40BFwUyUgkfRsJgBpdujUU+kQP6ClXz/krBQ8a4UeHsu0rbgEhp9HBWxqATlOJjyOVKHp0gnYFLksAxp1nIkKaokRAgURi9VioVwDIlSRjNWgN0g7LEGYBmRsQz7hdYALWH+jYgE49+EA+VVqIEk0u5P9mmwmRWiSRAB6VKHskmuZthGyDk2QIKYL+S5f8FFkCBoZHKpIMyCkRrDrYgNADwdC69Yq8AiA+FyRULCEBpjU2ezBoBgaomSXOl1A29DRBLUWHIh6bimDWqwBOk2hM0vFFhVoDpjBoABJ8s71sDgB9EbGlTHRwG5FlplIulX2AFgO2Rc70YrBAomNoRkxKofiqgmNhwMAsoIIoFIMopwAcLSNjVxVlARtFXO1/WJyCli3VE0wEwSAE2k12xUumOXfsBxUaxjcY1TxdL6hZM+EpzuAbMIDeFK0rfCogGcIVylSpPAHSlqWZdSxtC6WOJSXp7twKg/kfEdmQKyFcoOl2p4rRhrqTBh3rolpgmAjFOAh8EONslSoJWqtH26VcquxY5k8gay1FjzJZxLfGgyl6mWVJgmmmtgLcAlFtTtt3JKqHv9TOmTWwBjHoy5ehkJmTXGLtR1u0JiL7o7IQiS6e53VdO/b22iRE4ok2EJpgCLLzaTKepKjIAhGqLXM19ztwbCCxHw7XFhwnXIv2S2wDXm/PVjIL8oGNTHP1QAixBbXExKq1zlqBuI5A3k1zqtX5ntjS7A2UIyq3FzvY6i6LEl2yy11k3o8jrk/xqlkb3DzZj6PyBAlUH4dEDMcNdjLOTgE5QFdjHTbsPgeVzag7brgTUBWcHDWUeGlqdnYqVeAxi2tla28ZktGyzDbd6HPXPwW4amgfh7saN9ve4pUqWMD7D3Z92kWM8eO7r2N3lojnA9fXMNoCtxkvN2l2tjMk9wbZ2jlDuLtyWZ6pmG0ker5tNdXLdZNsEDnb+x+VSS43xsIOEV/mYjDxa1qp8se/P6P1TNVb/ooRV7XbU4y3SvG0mRsvdamuGx58TqmWkh/HGS0v2Hg8OtwZiP1egTYfKZysPl83FZujQtwZ7OzMx22+8/P7o55mr8vrj/VvQ/enx8fIpaf1/++1IH12+O/Hnvw==);lineShape=1;fontSize=7;" parent="1" vertex="1">
                    <mxGeometry x="24.520846102518817" y="-772.0720417527205" width="2.9274277376406195" height="4.43199834467077" as="geometry"/>
                </mxCell>
                <mxCell id="82" value="" style="shape=stencil(rVjZbhsxDPwavxK6RT6n6X8EiFMbdePASa+/L1VD7oryjhOgb2vvzEriOdQm3r3uHl62m+Be307Hr9uf+8e33SZ+2oSwf95tT/s3fdrE+028ezqetl9Ox+/Pj+ffLw8N2Z6+HX+0L/w684In9o0V3O/zP54S//3j8xl/2D8v8L5QrAO+kM8AH6jk8fueJAKCo2wIhUJaJzAFGfB6ggwW0APEEV+J6zo+EYcBHxMVYKFInAZ88hQLwqfx+6lSFYTPPOBzIh8QXkZ8ceTA/hOl0Z4lUwXfzzYgqqMCzluojvapiSrYD1MxeKaIItSTGw/AvpvsOkHtN0YEJwrgxL6SLyNBgwoQgqNotlRJgI3UCdGNBKEEkiAIuZEgnjwgaBCHMe8lUHWAIP31hZDIgRVStmeQDAM1q+PGzJfSXXmdUMkVS2BQjErsbroQKq4VQlksQcCWarbZfIPAjsRbAkr/FmoTIYP6pa9NwVMroRIvTM5PBOBpJRS2hAw8LUJhchwKPpmDr8AEUoJka6UAzNoIk6cLOrTYxtk8jfwgU2hwN8OaWZktIaEVuDfKBQFVvhY55UOEMkXrjS1NcuHWofMVP0Cz5it+KCCnGyFZAgwNVTgfCz6N/mQJMLxrL4zvTaDaW+b7UzRNGQeLgHSRsCBAs0qvQstijPOBJ0971Kedm5pcvVVn5iUYlw17CCaPD2HNpJb2H3IE9yT8PwRtELZnCRRwfFEKCwLynDY5I2cWrlnro7a1C0yhEnpfXhAyWCGXKYUYaoGkRplcDXVx7EZZBBOSJ7H2QWchgNChY5gKTYKtXbV0nkScIJnouzRfykSUc3VSrgLjW8W0G/2gUhdVpibXjZhWmQhWmKzKoUvZtflk/L7ODwwKWbQn1nBHceHtfKXzD4N0m8YTna8YRLazJUnnN6TsnR1O2nwI8aaotvkT2Md1/y/m24AGemvPeJkwr8eordnq8QzwqVf0xfyPbiSqtb+/KIjrBdgOShqxEd14xMkB5MH+PffC1vEO38Cw7f0Oyhcvtrw7fGMjVhS6XrzXhlszLuBe0I5XLR7YX19LsHhgnxZwFh/Qfry9oXLwvqbdmInBwyIdyEWDRwNew4/28f0Da/sxitlDhd327wwexdvtG0J9+He9+LQ/HM63k8v39jpS/zpfZcb7Pw==);lineShape=1;fontSize=7;" parent="1" vertex="1">
                    <mxGeometry x="28.868882644127552" y="-773.3871996027931" width="2.2012004282558664" height="4.301509435726577" as="geometry"/>
                </mxCell>
                <mxCell id="83" value="" style="shape=stencil(lVfZbhsxDPyafSVE3XpO0/8IEKde1LUDx73+vtwutDaZaIy8reUZiRSHh6bw8LZ/et1N3r1dzqfvu9/z82U/hS+T9/NxvzvPF/mawuMUHl5O59238+nn8Xn9/fq0IJevH6dfyw5/Vh4Tu4Xk3d91oTQK6f/K1xV/mI83+EquKXxmim6M50KxKEJsVADBR6peEwLVNiaEQCkqQkhU85gg+znts3iVw5iQPBXWBKZSx4TsyQdF4EwNmFSYgjaJxcgICI2ijoMsAIuqnK9diOT9GN8kzlXhXb+0ET5bfAT2t9aP3xymhvE5GfsDxje9f6EARMTOWVGwo1LgCVVHgCMxulJxwZxQevKNCKx95gadWIJghC0+ANktUTYEJgeyv0k2e3uCR4R3uuNKEeSaEJJJnQRzTQjBKMlTukPQJsk9o0Dnnlkdn7pPI3zVHgSsi2Lt4Xv4alMNyqha+x32t3UJXO0JKGKNkjf+RiQ6SRy9/xbBYSrbUoeq9YI39kstxQRT3qVa37khK7lKBVfTol1YyiMm+HcdxyFRf5ZQSw/qRghdh6OOU/S1StdEjVx6WspaFx6eIF3TNvJMHtS7JImlfYjcV0ad3w4j2zzz8WwhJV1fa0qwfEltMNLIAZYvUY7XTmeRNyrylPUB1XWnPraoB2nLHslvID0ZXbLFV4BnqrZv4lGB+3x5c0ACLcRR00EWrSewv6OkY3ztQQO81+WxyQQKLtTZCbj5O/aYHlsbHHVcD8+GL7D+SjXXAauxN6ABPmj7K+6XzlZHERwqdp99UdzHy8f1+fIyHw7r6+f2f/vckaX1qRQe/wE=);lineShape=1;fontSize=7;" parent="1" vertex="1">
                    <mxGeometry x="28.032337541946845" y="-771.5264484691401" width="2.2166251932870167" height="0.3900182411704728" as="geometry"/>
                </mxCell>
                <mxCell id="84" value="" style="shape=stencil(rVrZchs3EPwavk4BGJzPjvMfrrIcsaJILlnO8fcZhMFq0dhtxlV5I7loYDBHz7G86Idvj5++PlyC+/b2+vLrwx/Xz2+PF/3pEsL1+fHh9fpmny768aIfvry8Pvzy+vL9+fPt+9dPfWX/9NvL732HP284HyXljgrur9svMYnGf375+QZ4uj7vAU1S/BFAUGkFAa4RQFlOiJLDOUCDhIIAlwigSKgzQEXdOSAGiSBSGFscA4oUEMmLJ3dIQYqfANqkMIBpKc2AKo7YIYfxeANkCeSEnMbjDRA5oEie1apeWiYA86UZENpwx0NAcZJmtZqzBGI4AzQ4wXzJU0DVGRDEkxPsDnUWySKkkBNyxTv4PCLkGJBRJM/jIW+PN0AQJRGXzUyza3gnkTlflTY7Xx0Bcrw+SZ5ZJkshdrZo+JchxnpOGdFcf95fqQ16uM/yB2qCHlrgFZKJUxgj5WV/QkjmxSCPSiXyd59E/SihI29RMq8vQ8Dj9WGYZ+8QxMBN4sxe3gxADijiIAZMA0ocQiLo00sg+8dlfaL7m7RuISJiAB3q3uxlBiMOqhKAeyvlLRUPCSoMbj1bP9/XElCk8oN+LOIiS4CLvxWezsTP8WIUk4j8GeUx0nMkIE178/7G247Ib+6bZgctKpkYzPwXsmUpvC5KyKHVjaA7K6QccGiQSu5gQV9mI1Tu1GuU1UIvbem6gkhtJKuzQgoSeDM7E5HipvUNoFRLyWEh1SL1JEtNQF0tjeA+q1oc3CGP0uqYuyJauhVaIlSV5BDAartm2RTuUGn+s8dQY9svntyhLYRtAFYBG6AkBDBLG6AtAJbTvNtCeEM0SjJtKb36tTggLycwWrXHYQFUBqjDsDtA44DgFwAzdTk6gVmuDMPuANT7LCAWkSJhAYuXmhHg7wAWd62kHuwird7HTrBLLycwrjRAdQjwTKSKJdX9GD04gXtrWO4QWBHWsOpsvCx/95wdgNXNxzHq+CWaIkA5oKwxyplJIwIqZ9daEcDa1O46M2Cnh/8JYTnCL3rKxGEtC6WF/JglcsaBwXuaOcuk0PRYkDBLRNM7WCJT4ngfouxytWdl61JkWfmgrFFas5Cn7meVboEyrtFOIzgs1av1tsRw1u1DWNc4CPesFPUgkh9bnBW7ACiVVtMFXcmcS5lnYFbscxnazSh0/5l2JwETkHUPLKI9dv+p0GLGYUbs3Q/Rz0J6vbui+7s5RffujejTYZ1u3SHLnw7137tPKk+a5bGwYFFj7jXrs49f2IgXU2HYqvYTf2jzeosJRix5VJq7eRYr2ywA4AKVFmHWu0ELkEbWOov5iOMaZRyRkee8RNaHhVF6jPV2IOv+K8rDk02M2F84SorWhCmMd+ggOCUMGN7Zrj1bpNVdDsu4gPJPTjgQrXyAWnFcaR7VSAAUP9LWbv7FLFwUNWQh4BkgDsbZjZlZ01nSGPnuBtmOFRRJIsw4rdFlo/I4+rkNUDhA8Q7qaCfS1boQHR1kVwzkXjGQyMxxJPc99bJ5xPr6y9GSJS2jyOipL1kVBbOtqLyKUnw/YPHNhq+dLiCfmZaIHUzrwEfRahxCSGE9oXCGjIOAdgB2h4PXkIWq9eBFZ6EkbwC3nsBmjHpwAtPSWtgZgL2c8gFbyLj1uWeAVSTGGgYAEuiWZlPMIwDLVQci5VFB/9dLp3t2QLUa/zMtrYZLlL0PXOPO+5cffst+H2Af3l/qf7k+Pd3+E7B/jn8CsJ9ufyDQj38D);lineShape=1;fontSize=7;" parent="1" vertex="1">
                    <mxGeometry x="32.06076936059003" y="-773.0120158619612" width="2.381315536635455" height="3.931054431962013" as="geometry"/>
                </mxCell>
                <mxCell id="85" value="" style="shape=stencil(lVrJctw2EP2auaKwN3B2nP9wleVoKorkkpXt79PIFDjEa/LJuo2obgK9vd54SZ9+PH75/nCJ/sfb68vvD39fv749XtIvlxivz48Pr9c3/XVJny/p07eX14ffXl/+fP56+/v7l0E5fv3x8td4wz83Pu9CGkzR/3t7EIor+f8nv97on67PO/rgclnpk/P+nD654Fd6T9+fXWwLfXMtnJMXJ3khr66Tt4ur69uLC+Tt3fW4kCdXItFNdLEu9PqA6CZkV0GZLjDdi/Pr+71LldD3ed07PbOVHt8b0hP1DGN1vE8i9NUlQXmJPtX2MYA+C7tPR2/ILhH65FHeOr37mD46v76/zwdn9G3VTwiusWBJU76NIVP3T9mEr0yZzhhkFVltEIkPpeLS6kOqVKqkMm+8Mcg0yzFDxZBPCjJMS2qlVa16ZiZ+NxhWLaX+7pVWR82bos+ElvVKublKXFsZwJVKdF2o4fwqQ1E06NT5ALxq4AzB1fWEqs7CruRdBPAV13g8txXvxFPDqecAwIiGFLmS4jkAvKiiGUNGO4hwzFMIgiu1qehjBj91smU0P2PwGLX1fSvKt+gyuVIwWmoqFctTqqVV6Lbp7ZghuQ4niEsEBDQTQuZpnaaesGWCDVr9DKmT1FwAiqMTckBzGd6fqVIVRlcU69UV4kha1oBO+zsq0rqpIQMLhmBASRkiM3NHJFYZGoG9aNLPEJoxqIgNGSKDDDVzRwYWbgp7bQWlrlDL0k9zQZChsoIzuJQNA/GkvBUVO4ZCXDXLrAJ/kqFo2VU+xBBdtVciWb0UYwdlIGrVZCNGrcw1qp++uWcglq5b/O4YWADV4qLREisna8PyWTFASMRJmDC6Y4jkSpKN8yV+gkwQ2jEEYmnNHRVOiLOJOGZImE2UITCgFCwpe6DI2k0ZoAyJgIBeAMruwUDSz7BrQQYmdFfkq6jWxk7os/jaWTpQuN9aqX1CYQmrz850x8Bq+yGECQjPhSgmqCO/koU+lhSVwRsUyCTkejMpqMwzzxhKQ4bATH2U2Dtz12aEzhRcDxlYkju4UqK1/RC6I4MwO1i1auomODMM15CBdXHDNYphYDL0mTT3V+LOh+6deMV3FECstj+O0fTOEQYGKPZ17GhGjHIGxG+NUW65bAogCpbdhYoMrK4czmRgg57QcGw1ZOAokI1aOw+5DzLov627sitFY+lEe6a+jdp2eZRdSfNoNCGXyAnatGGW04BgDH72wntgIobTagPLxEwbAq1nksV74t5aMdmqjw1ktSbD4qG6TCpXrfrQDnW2aqd1Jbi30CnrQeUqNI0e1MZCE8RB9S10CHdQ38vU2892ELxXPOhRhOLS6IKslkhGGX1WNQxsVGmmv6OjZlM7BYGEDJmdEHBwogwsBWm/C5NHRSq2QNCOGqcCjbp3tCmr0co1mNnmyBjE0mPu0JGBzdTCNtTfZsye7xHE1PedNpcVd0qj5KJLn2Ywg/aiuIMaWZ3S4+znHag3sRNmDj6ZXckqb+sUL0LAvdIYv5ELhWhmjoUWlEFL4FWEMUJk06uKMo8hJRvwiZlqeid8eSWrDNIpXsQwdbIb5bIKNEYsGqTM6uxsWFxWGYS3lcPz4ITAJ+SaodcTaqeF/X0DtZvBM8Mljym9ZpoOx1pgtYMmSKbWFKerTYZS6QQuKUiuhhv5jgM9NFi50b51TBFXRNL05fnWy9uNETFcKtgZ6xNmuHGl1dJD0XwBBPkzNi5DwtFp3IapZwxQi2lIUaGjWVc22iSqiLB9DHwcMObFsCGPdAw/3Ht1DU1fbEcbTaMrdGKnSgf6wiFAsB3LVOLxRQM4Eg3PmNHxIh2+jR0/fqNAd0UGhgPNhYrzkEkiRW11AHC6RBcC989N7vqk9/cYBXwm1nAqUemyTlD7jfbaZvGm12Pj3ozFnZYCbCUbcUQSOM4FnEYEDtUBt26Bb5RMzT8+YWFVAs7PlZ7V1x4zeBBaeXn8QCTwXtBPDN/fn+jfIziofjrxB4+NoNKz7ZbHMZ7Ssyyzfb+zo2feb7oPpff8/aDPQsPlo1+bvU+vP+6ftn27Pj3dvozb/x8/hdNHt8/o0uf/AA==);lineShape=1;fontSize=7;" parent="1" vertex="1">
                    <mxGeometry x="37.825852047331864" y="-773.6766273562862" width="5.484766400213222" height="4.624495619874619" as="geometry"/>
                </mxCell>
                <mxCell id="86" value="" style="shape=stencil(lVzZkhM2EPyafVVJGp3PJPkPqljCVghQQK6/zygbGatHbtlvi+mxdYxmeg7pSd58+/D2y/NT9N++f/382/NfL+++f3iSn55ifPn04fnry3f960l+fpI37z9/ff716+c/Pr17/feXtwM5/vr985/jG/5+lUsutiEU/T+vH4gT+e+DX17hH18+XcHFNb/Ak8uBwVNc4Nl1z+BhHUx1pTK4zwu8u5Buw6NrdYGH4AIZTXQ1rfjL+G7gyzr6kF0sFF9WfHWJ49fphu5qpPh1/DG4TtcH8cn5h75fd/chPN9ei+9O+PqseAmPjV+iy/kRvK4P1wfA5we/v7jeqX6uZ1GaS3Q8FY56d52cdXNeUqDrr8dRVrx+A9E3cRG+P7lEjUle9T9l18j6yPz1C746IeNJ03pc8I1aq+Skr8bNz09u4Ms636znkeh/cn21D1lXgOyvWptVH3J2nownO4HxFGrMM65/rq5TfAV8d4msp1qPFV+8a+S8FBcAH51QvKzrU1RDyHoWdF4lU/0sc3cu+Oo8OS/F1XX9S5uf3MD3FV893a/qAuCjC0QfKupDFbr+1WXA6/qQ81XR/tRC7Y9qF+CbE7JfzYXV/tRO17O5uOpPUz5A/EVD/WmR6vNltBe8TIZwA58An6g/bXi+WqH+rpv58vUPftKji4BuIVE45VNwYlqjJ1IJVVq3rHXn2S/omS8owDiEUqS8/kL3nJSpjU0o0JiXbIaF6jKQSSvL6Ouy9jhntReoaBhVoBMB9btgKbpMX74XqEhde3KV/EKOU9MuAnmy072Auup143qhZFd9RVi9a6/Ueqnx/19zrgQaM9cJ7V1vNPYp6kACClRi8NSe45BUvZlAN8qnh5aZSGW4HgWE+QQlmWZIjBTVNE/wtQDzCgVpSOe0Xa068MCDQPPTzdwrEKfZuhZgniFPYn+vQEVDdhLoGPwdBNSo1IeGpEe+PjQkPcFihhSJaugJhgBEz0NjDqhiRN0vxnMv0FyGXyg0pBjnC7Q1TxZ0S0BgSJGSWhVIoEueuqyxiKt6q9stbA4NrbfqLzNkY5XWSeuRqsRUjlUHZpX4L1T0oko9GTUZ27Ra78GF2T6o1ViXVcl5ZL+QkX2qxyjEVKoAmEoNd1j4ri4QJp0jNfcqAAFJ0iGxOchc9YuAxhBcAENgmSfklgBw0OT5Kgn6OGmcVIpJIObTHOJqZkQoI9sIBH6mjcCgvnyVUKBSh7IRyNMW3iuQaO5xIxAp0d0IhJN/gHAgehr+DAHIhzZKQ4fAeoBC5dZb0Ago36eGTJAkhjzd5E0ByAEnGuMOAUjSymTjNwVM1phlAYYArFKkaeYhEFeBMCPTWwIe5sATVcMFAtfgqmQimsYHFNHuVW7rI2bODpY7Im1INJGneNA74TwmIHmLXIk8esNID7+SwwaZ/hkX7PENM5FqIIk7byaQ8bOss8cLZhr8XIBbBD0/gh95IBxPZVGPYPTp6X6VhpnUQ2IxYebY0/C5XMjQffhc0St7mojMCS3vAR8m7bgPrzQl4X5RfMVK1AFf7H6xQlRS5gUGa5YW9niZ3PJK/xk+YLQWaKAjHblmoCGwaDSI55FmhEzmPswFuJVBqrg+tE7q7Xxp4bDNusEVnhUOs6msToNxK8cG9v+AD5gAO+A9hlwcH5qp9HJ8nXmiO/EZ7dsBnzb7xfC2sk2zd8oXjL4xfEd3yuF1crb74MXQGQo3URmHx2mZ7oN7zPEHWkLwhrDSjfKbqRK/6zGZEWg46THbGOZS3YLjVBP/dhy7cDiqJEtkegydA02JexOK0NDFY5KH86ONuWR9JZcq3NVU6a4aZxKJ8/SYsA20CLaBJ0L1N4PJHI7fzipaO79DF9JsEz+rRgk43KgYc4IbBWYFjs3xYC58d/g43CgBHwxONT5mllgAujF6jG1tTCo/fA/BN/adWYKN92DwjW9i8I3noxkV61cZfOe2KX5DCyh+QzsofkNrKH5Dmyh+Q8sYfkf7KH5DKyl+Q1spfkOLqSpvaDfDD1qP2sn6fcQ2NNJqpGRMlnnaLyCX9sX7wnIx1U5P2wtG2OYBX1h/lmlI8zRZnoxx8LS/I+XZnvcDz2qvu7CZhZ27sJzhd2E/xW/SChS/SVsw/C4tQvGbtAvjjLu0TmS1b0Ev6mkdYaSlUN9Y2nGX9mKVwZFWw/X0LA1XrP4zx9tMXdDTNET3mLr2vBQaLF9j/a0jzQoVBz6eiP5FKDm1BYpEgzfFQx9BPtUz4HxVuv62At94mltmo9GPtHvk84XzNfL6fECQ1z9XDqAUfa5NdFMuOVQ/uimXHOorOOljBQdZyrFGBNn6cxUK/fyxzgXNUOdKGhQEzrU6MKXnaiAKHOuNKHCsaKLAsWaKAseqLK7Sse4LAsLTDhuBY+0aVGNUx5lNFfQ5o/7+0BFNnltJ2+YutG1XBcDtpMLtdkK7lzqtX40enfWI5kiD7dH8sRqynKdp2wuYXvHc+T4UDOWKcPVW8gs1ysLPdMPYsvJGUxWAKmhNtEzWO+706AtiVqNj3aVFnhg2hcrR28T6d71JfHTP+0s62vtRzmYb0WdQcBHINGM2+q2g2l252TDtU6MDizc3gRUYXWS8VwmbzDqtKFqqcbXSt8gbkM+ThG1ZPEqYrsijhGm8PEqY3s6jhGkfPUnYDtWjhGmCPUok04jY6e2v0clr+mzZdaLRsme0kJVhS0eTNrSQVXIqUq3eaeG/PNorrCEidDmN08tK+QHJnAowb6d+AfK+hzZy9TzY1Fr5tatgVqlM/bqVN4Ak/bBo7KKZSfyNXkZ277aa7nweakmcmZ2LQKQc2V7mUQG2SuPqMAwpTHXcu5ZuWrA97fpRVu+NAIuGgmmxa7zlNARMoDWurR0bqhuPGBvaPrW4kd+QggmUw40wSK6PG0nMxCBpasIbecz4I/WLFT1Q45WKignG2mlgVpHpVn6jtmL7Ya2UzBRMGNZMS7SGhFahGVhzA1GdBLMsBRN6lccOBedb2uGGJpC9wjMmGRMg48Yla6RC/SlCPZrpGS+ROwO8EVF441LG8zVuvNIbweCRMw/2EnK2XOiN4IQJq5wps02oD1loiJ6wYJG5UTcFlMxvsArGIxpIskYwY6BTpfpj7smNTjVabCzrfBN//iIi00z8ckmc+b4LPtAbxxHP47jRT5thIM6WRnlBxDry8UUCxJ9ePED86UUFxJ9ebED86UUIbxJI/MUJxJ9etED86cUMxJ9e5ED86cUP7BM4vSiCjeSVZoKiKWhmWgGKm955/qILxmW8omnOYz+oG15wp2G+6WrPdDHNZYdEq12C2R+hV+cEXWOkCTLBjlJuqEylItL0hEnBnx4GAZoUaWIsYcTGu/FN/jPy5mUMUSOlYAlrXDxbldDiC9XIhM0xQvPVGzjrA3rwLagjXP/48ezU+5ePH19frbr+f3ymSj96feJKfv4X);lineShape=1;fontSize=7;" parent="1" vertex="1">
                    <mxGeometry x="85.34315846544655" y="-815.5019785840855" width="12.668384458410495" height="11.760790882951705" as="geometry"/>
                </mxCell>
                <mxCell id="87" value="" style="shape=stencil(rZ3ZzhzHDYWfRreN2pdrx3kPA5ZjIY5lyM729mFFqZ6Zw+mvISB38m9yplby8JCs+ZC/+/3nH377+CGF3//48vmvH//56cc/fv6Q//QhpU+//vzxy6c/7F8f8vcf8nc/ff7y8S9fPv/91x+//vdvPyzJ9a+/ff7H+oR/fdUr7ShhaaXw769/SceI//3Dn7/K//Lp12f5esQq8jODfN4ft+XzEejz0xv5DvLxqEPkI8mHI1WRT/NaPo9jFJEvCeT7UXT8/xvge/l2BB1PryBfjq7zpfXPWdenHJHk01GTyGcaj61/FfkK65/D0bLID1jPNI/eX+TrEWA9TT5Ekc8F5MeRksg3krf9zSI/YX1SO1p7kW9HaiBfj5FFntbTlm9OkR9wntf2v863HwnOw7pOTeTpPJs5cPKTxh91POPItD5hm4OHfIf5xnHM1/FMnG/se/ke8g3mG5vuVwzbQr5XsA0OqtDgBsSiFijamgVQyPtEPilUWFNTiFkVJi1qOvLrItlfCq1qPHpWhUlzsCm+XmMbZKZ9CEedqkAX4bFNp0I5CqzSdFMwSwRfMI+cVJ5Oqh1UkTfTAZ5yHEUmbDcT9mAcQY7R2Kb+rXw/mpzTiTe/647ZVW2wnk03zExBB0vhHOVCHiBfjyrjKXjzy/ajp3zdru1CPr8aFhvhhP1yQGhZOkISClQervC9ZTz6636Za85wxdKRBKikbcreX5ijv87XoEiG+cZ9X09586x0IdWwG5QKMP6wccMpP3B/HfDIdkNhPYPeL4OOBc5DUCBt0LTAfQkbl5zyCe1P2Kt9yuf9jVfyMp6CnjVsHHzKV0R+Qe2bhRIZ11/uS+l4/oMCrTIQyQUHXCeeTzsPr/erhpvx9Nf1qXy/ggKPmvaNvjj/4o+qWQBykXt3TvnCwOOor+etMpK2+55Unuxt3A79lL9BohvEnPL96IS89+k65cf2UBfyVQKHiRglKcxqhhAoMlTQZPIYiW3rccrbCrO/eF2flrZHu/BHUcbPkW1R+9bO0OBCXtenIEisGlg1Q75w3upGwad8u8MDMh5DLChfXv1RGxhZmTcXeTs/IN/V/vSA9mps9HjKR7zvQ/17T0dAvJq7yk8YzwLErw6m3yJoCZW6nRGKM+K+4KdC3YfqKs6QM9EbslOG+eXS984KRemRPljhpAdOBYZlhuIlbhhh/+UyAn2d9IjbVV2GuKKQtq2/jKFfTdHg4Mpse5I5lI0er1iAUlSBjMVivV4P36iMds15yZAaT7pt3u5U6EeiSfcN50+FgdSl3TihwkyBPNoC6PINcxvlKzIvCjkREFMY5I6v92FGnEM+1+RJgfbBQLTAipl2YHdF2CrBkvdhea9Q1PHPwo6tKUU66zZt7xWmHu9546rijmROhYZYZEGzV+M9O9KAhp2EYZkdjbGBIQl358A7bWhF/KEpoL9NGlDMidS84Q+hJk2BEHOreoFMgUIoQwhK7k3cB3P5eryZ3jOfX7MqEGrrQc39nGjuu8PNdwpZLd9SgAtkXjm4fUAFl+O5m3RzF2iiyzKvnNyQiGwxryymch0N2GnzytnNgVyWeWXBS3YfKN4xrywBvCkQwWFeWSLgyVz38spuSCGBQnGT7sjBmZPVfeh4RYff6bbRx3uF7s6S+Wn6hrFR7ZMC4dzhGf6KHsicrERWkyNhc7JVvqEg1Wo+U7g783GTsHpUyt4U6GhMh4ztLx32YTo60RQCzSFrYmMy3zG9nw68SkW/YbCZsW2SbxgD44fpkml2HMmx21GTOz0akqKzKau7cCutklk+yV8VtHymIDzMMgs06XHEVx9nhof89BwaNK0IhQ7fUGTc2Rgv0yux6+AhTc2i9xPUXSkIdDAnRtmK5aAkjitI7z6AwlN4TABr+UwXsBOh+nCyT4zANyqEu31ontOg4z13CuqJNKHyh7UPwlr1uznInTZQR7SbKUjCePFQfLyHEG+Zr6iD0gZ9cdJju48nag+Pd9dlrROhgykIhDO8T4HfcrKvq1QbokozlUrfVqSTTSEJn5yRn5yOcLQwiuii6TiByql182jiRcvg++CKFSx2JNy6XOCrqbTolMo/lgsUBWZllwuUIUWkNT38KQHRzHD+IQ9kTsxnCnOS++aar0Bik1RexSIf85lTiqwKWu+FWyUZmTF5Zk5W8FJOyDqYgkRZq9KJ4oesli8zz2deWQhmUyBuZrjSrMQZroffPxUGHu9FNCZVwCFFTTokNvcjuG/gGzccV7kKrigWnUo9JmZ/FuErFZBlm7YrBTHGicG6Rbvi4xY/yvG0mMoU0QM9wM6pEDC53d19iMzNGNgRlxXZA3WXf4udlzUq1RK5VK4HzajFioxum8pgRS5hMLAjWCPyTi9CSobEZqZVNfcxYjjQilvWgEFTy46mwBCoOaNxw/IFvT4DN2EhHVdQCBNeWV7Be3j/a1fn09AirSy1IKWNF6/kFYrhXTYYVaQOYCcur6hi9ecY2FcHq7iMrTpWtjATnZVTKngeatJrnDGCNhAo65MxLbswoBZk03kzCKh1ZojYiovoE1LKCwBqAT2ZuZK0zoxRsME/cYCRc0TeyCFoNiwnBiVgAjS78x+QzzPoJ+MPeN6WfFB5SqKd0d+TPI2/qIkO2DCw5IvKU5nHm8+nMtF34w+c0nPrQ5xwrlonwSgzV7+/VIa3Uoz52z5fwo+APKTJS51iQDp4yet4qFr6rTydN1fXEvaELuer65l4v6K7LzyeqOtzd7/aN8rrfDHlXDSsuZnvu/t4c1/cfbwZj5O/sQ+6PuTvsmvAuD3P4RvvS3D24eY+6n79X+XbN57PrkRrwGaE5b90/SnxXXynAJd5J92veOvfBaFjJcvCDxKKIV1v+ETwcEIqsAZXt432v7qwKmPMU11m6QaPZY23M+KHVQohdcx4/k2+Kf6k81adPyrI21RXd8gNaYb/JZFW0V5VV0dYdyH6Vfwi8UhDvFGH1iU3Pj9TP7/j+VxVrdpwRf7X4ketFUN827IrXOGKjLL7I58CYAKgrb5ph6KIsHWNMCJD+uaKEyI3oTaXJYlce9tdsfpN81F3pZaxISvckx6j2HGfu8sPx8HfUDQPEycirVUc6jqKCNqvHOHr0V6+gIk5iX1W8EYKwzF5mYc0FX2ngnC0uxRdKlg6MFzfRuLKSVMYrnEJme2otWirZ5RKOCyi7aowaEhJe0nS4CElLfEzq0EofGRF7YsGoyFlvUA5cFVJ0X3IEfPDpiCrlBPT+a6jLXMlwCrWkZQEc0OmINxE5mqG0fW0rqYtSnoM5Wzz4DzM1I0zgIjp3qD4ej0RwApiyErGszSja2EvXIaSXCtT45oPd1rLwKOxyosEZDCLMIvyzjVyzYc7fJUfQphN4/xauV+hKZFs0Ila8VepmsxhoNudXaF5ndhi+6jPO7FVxOBoejCWuI5rvunaoYo9XxnTCrYdrRIOwZNtZ72vFHQO3KhnCsKAtpu0+1RIucpQ4BtiCEp63VS6vNO4LaaRuLDfbp3MYhUEceWKWNdVcsRVUNJyZZAIz+vUuvTeMJh51FefCgOB6Dqv8g2Ty6Zc9c0IPCTnIczZY9XH0J0eN5apa8vCqg5gQyP1PeN8xOHKlEnv/MOzXhpLUejIMjxKXE+FwRWmjtYdk52W64wyR0mFKKaghbuRH1TI+/SfCglx5UyuJDUhNzSTKz7O7HijHj6bFRrLoDBxeVbGM75aGSuup/Il86aYZrgmocYlR77nh2vFRntTZk6rZNdFeuMnJ31H0aTg7Jj1XVfedbNQJDeS+4bBz21EBXGrDJZ2OigxNicy4d259mWeb6JR3/5yU4iSVIHIuu7IruXESKFqRd1kuO6bU55c9xXxIAD/VsO12NxqBGUSHvDgktHxCkRjDa1gWwpEMrnYbO0dEWsOsd80FjX3btCq5r2h+pwCPQGxes7cKlG4WIe7Q4PZ0+aa1AaSTLXoe2HLNBFfHNW3r8CFCgocxJ/M6K4aVNe/SEjUws8ky8r9KRYRa4dkRtI1T2f8EqKHVSHqfPtdmtqhB8wzZlenFLBZMEf1i6vWFoaUpusY5o6w1PWtOlMg4ni9BScKfPiS44zMF1PYnrLrSa7ciJ3ckCq3erv6lOW8qYN+ujnwE4lxuA76dNdBLwTNYiSpg95Vy5vzpq62WPU+9InwO7rXosx5k3+IruzKnDcquDfZzHnjey1R/YMpkFOMwVXuVbzTU+mW5ewp5NDM3XL1+GKaQLjO8UN34XRE/rSri16kA74YIqBhoQICDe6FlIFWuKp5aR2Z/qpHyDAEcd6uEqPxiz+uFLVxH6VzU41fkchqKBoTLFlvcePSvawMZYsY1idNnCw2kByIto0a/kn4gluSylJ+DiJpbqkOhP9R82kr14wvTAlzWJnFcBHSqpXFF+Lkfj1y9xfyAhEMvNF9d4mumhFSBK0crunmhS/J4q4Xwb7lBbT14hiORzLp60UzfAFNgObKGuDnC4Iq/Wb8mllpN+MRYu72RTmB4rcv1kllWmH74FpJ1ot7OB6tVGFCK2i6rQQkIt0LgJnDp+AqeQYmqoJ7KrrxC1AaiufKL9Mq55K5NCe67GLCt66T6zuLSKC4hqrEXZVZ1zPxC5KOqkjMrhdX2VXxvLmOypu3uqtLgif0781l2bm1sCleSgEzqY5diuy/XLgUubnYPdUdO3YvD1c0w09PTPUv67EvYrz1/MebZlBtm79pPzLALU+oxoy9PjG4N4Q5lR3d6+2Rqw+jq+6KCTFcdJcycqI5uncPI3tVW8Su7B5eg8euPing29JNv2FydOgO9sQah+hzZPz89lSgPpBNT9FlyDDJ54Flx3h7VaBKrMpv7hcdT2NOomggyT2jyzAmkacTlJomBBvj+q71fhWv5Vpulafk9dp+AZZYM5ZczVjBlqtVySRAkX+zwTn6wi9Xu9xK4RYYF7hlvMDrNzC0pJnsdG4KLDO3UHXt8s883+F/s4TSYeVdCTfTtWKl+fH84mo5E8Z5BpudPN334lpOEt7HFSZoiTu9PP/uN2nu5IvKM8Eu55nfyyxNA72E92XJZ10fWn9nfxImOR7VY0/yN+PRz6eqvnfjp5z2u/UhF7/Wv6s8t1S4/cXz/K2/aXQrb/94/IDST59++eXr7y89/3/9wSX709cfa8rf/wc=);lineShape=1;fontSize=7;" parent="1" vertex="1">
                    <mxGeometry x="90.86500392902872" y="-802.7855373787103" width="25.65781194737461" height="28.54907164275088" as="geometry"/>
                </mxCell>
                <mxCell id="88" value="" style="shape=stencil(lZ3Z0hvHDYWfRrdTvS/XjvMerrIcq+JYLlnO8vZBRzVD8mD4dXwn/wbImV6wHByAH/J3v//8w28fP6Tw+9cvn//+8V+ffvz684f8lw8pffr1549fPn21f33I33/I3/30+cvHv335/MevP377799+WJLrX//4/M/1Cf/+ptfK0dPSSuE/3/5Sjjr+94e/fpP/5dOvz/L5CEHkWwL5eIQi8r29l6/zqPr5M4B8P7/+lK9HmCBfj5JFPkeQt/eNIl/p88NRi8jT85dxhP4i344E61Pq0YrIN3ieko/0+vn9iLBfxfarinyD58/jfL1Tfhwxg3w7RhP5DuufbfvHi/w8Mjx/tvctIj9hPXPU8xPD0eiBwhFfD0SMuGPrBZMqzAoK/SivWxbT0TootPMIXwr5KLBpdibTfFUoR6R3KOeiPyngO+Qjv25brMeAZU3pKPIO7ehwkFI8srxDPzq9dDiyLCsfvTjPfb0UJtou+7z4+g32nQMupz2xXH5bhkDfUPU22EIn+gbbptdl3dh3OznjdVmXAYN9sLM5Xw2qnd8M+/A4/ZfCZh/CMV8fad3BggpBFOJR4QLNI4r85eVu5YfeN7NSBR7ILvTrQcp2GeD2mEkX+X5a8Xuno5tsVrnD59v1f92BEs6/3DuFo4l8PDo5nSO8nlLzQhnWJx/19X2LHVsy8u7zG+6vmc/XI2pel9YzHfH1882rB3geW43Xa1ztL3RA1dZZlFHw8+Orj7UohsyEWR2JQRresKDrU+2Ew50PR5H1mbhfQU21RYV0X0z+9by1hHY0nE97yRcM6oJ6s1Zxv7x8RwPk5cdR+PlFfuL9cvI94vn08ulIf0qe4wm3X52dTNAYvFe0VxZTy+c3DKrDGQhc8uOM4t/dl9fz2Sc7GL2Pw+wneTD1FyOeUeobebGHI20+f7zu18j4/En94yhnlvZGPjeVp/t4hauXfOVYTqOaYfacYnC3nh1D8Kz+dPB5KJqzDvanl/e/5Od5wt/Ij9f1meHMut746xxUvsHnVz3/M54e7U28IefB5Bus57U7l3w6k6I38tPJV3j+7t434X3vGp9Mi4oxfhMMw+QLrM/Q82/ydJ7Hab2f5CfcF5dozHIkeJ4rDXmSr3B+LCDORRUGBRzRrVA9Y653Cm2qQoYQy9KGklSBklxLTCQoM4XJCnrqGq6q5Ur6Do2XtZ5e/UmB4npLaXUfLJAgha4ZpSkUUrCjnVWBjqopSDY2B+Y+lgOPoQqJjHtQhMgUCoENliAWVWiwcclhdHOgvVgGXi7QRNTQLGrMqkAZ00Lxkipk+oZ+o1DpHYYDuiYidcvKeAXymuHc1yeFDlYjx5tvoLg6p/NCPivAsuYrDn1WILixKFy6XhqshmXmeh8m5pa5O+M98Ypabt6iKhBgki8E80mB3G2J7pHGeWnvFZIGnKZAKLfl88PdOMKhSnUOpSMuaxm9t3xUaCjdOenOoIa9otw4tt5lnkn0kwKl7TU4D1QxDqjpxOafFCpVS7JmaqYQqVxSzsDrKRLAULIqtmEK5LJqc4B9PsOze4XhzAxnL6tE5MJJsnwtnPv6pED5ckvOkEXc6ZZPB/UUoVMG3+qZ0D0pUF2mNd2HlWNQzD00KR/sRdt0lZyOyG93MNbgaKYnzXssz8vwSL2of7BEkoxxr4pkWaZK/qE390iZU42h9TFToNytT3XsI2EyNlywPiKWvEbUUHoETD/tAeQCdY417BWbA1QI4LFVl4y7d6yqLYBAHqnxNzTNgXpFjM3O5pB3KOcNuVcY6uN6PusE9wrTKSQ8GstGSG328hj3ClFDh8YVqemqamYWGtjWZXpfl7V1Lp1YJCDYa0OXZe5DweCKR2NetYAndBffobpvyBg6zKobZw4AX7qpf2jxDCbeKejGBbxxpiAxn3m9Qo/Utc5fOcsyhSogfkeQdwVsUrVomOKvkFAUKuZAc2g+XbmuZgpdCheZ92GckMGlsNnpqfdhlXZolabWIiwKHGCM59Rq/yo20X2Yrlo2ER1eGY8rf+FOT7XepaMxfuRUl0JjuzQ1XrIEYdJO3ylQCexGoWBUeaOQzxTk/1Vgx36jwLDsjQLXGZbCa3BiuSMBoUvBVY4TXaCpSdPKf/l4izHODWsfD2DlUqgI7i/oRqrlBfPplQzLO+SdIZOkKSdM8efQmG8REMjydY29c0AgZF5e+VRYPKeNfyiqgBvXHBFkIBq6wFL5hs7RTFP/kLiMs/y0sF8aIlgre3YKBGPPqshJqlgZWMGJvHTBpGkW5Zut6hGd1qJcrZTP8v67iExCh0e97J2CRPcpIVdrVVeyKhDUYmGoFEQSF5hMQXANUyCA1iJjCUNXkZlWKWqWtSF3TQcimAKepeBIdlcd6V3+0OWROmIzw/GWYkMexkIAuiqQQzEFCX9ixcrs6Fp6jFex852CmHtTIG6OJX4SrMeMILMpCNsgZvRApiCsvJjQGI/qNi5xxl4d2TFi+DOqMg5MYZOA96oKZO6HS8sW7Y7eoWilyRTwkbJC8aaAO+3MzET0dCQHVWKovkgVKk/pyYi6plw0WiQPwcfQrI7gaAp81xzNceBl7o5az/65D6WRMYZj8oJed6y39q4c4YYlgd408WHv3x0NouGt7EV9yMW2vZfPynytiEuYvNBKKtZMHiStK/zHEG/hsVPkCfDtQRGxwmhsONHdhzw5wDZd2Hxe0HeItUScGSGP5iqgGUnsC8mSOOfsRXgHuWuodka47zB9oaklTL5aUYQ+MivYnZ+I9qFF55YQv2xB7WHA9alD71fA9amOBs2s4yUfVZ5KVV0J/gHXf8lXkafzs+SLyoM9uft8ui/V2cMNK+xmfaiqdbf+xPQw+eo+fyPvPp9aq7qCD+EMKd7K6/oTBLTk9XmwNnonz+fZPQ/BOXfvS/66uhw/YNy65JPKb86P+/yNvPt8fh53njfvm936b+6LW//N87j7vrEPuj6b81bUHm7Oc3HnmddH/Pv+Pjr7szlvTp4+3+y/21/2L279N62jEo8F7Dkz/xjVn1J+Yf63qDw+T3XZM8arq2Sv8QDhMM3Zk4TxZBt63hKvz9TSdcb73qb694yVPYsPtS0K44celGrFTYgW32odA1HY7mjrBYGC7himXGKwfEFwgoqMjF5c8QkRJ8tfJP9qaK8sP3L5DtEALP+S+Lzx+gxlY3Ren6mcr875hasidWxtHi5e7YwPOASPOWuLV6GtzQhwuMbGged/JEcfxvM/PM0VK7wja5sWI5zDEaYjO7zhu4IDIyiOFmIKxCgd1YFMkR/J1f5NAbkwVWtskXsbFzooq7Th8zSX5iX0M8Pd48V9Z9BVAcuMhLjhIsXIxdHFBOuqgKDr0Ngmcu3fFKSQEhuja1OzmdUwTiWC4DauMwcjaD4Tmem+umySKpBH9nyeOJnakhQHToFrO8lVwDiImlmrqQtloJfOmiWu9llW0CpeQju/KmASF3F7z+qG6apAp3UWLb+mgq5h1QmzKiDLo+pZShsuTFVi4gaNnI4wnTZErObgsM6Eh6bxiClgnbBrQJX2nCRXpCZGqSnoKk3sTFyVeVdop36A6VjieUP1cqh5TrzTU3tLckacelEqXl86lx1DQg5frjvShrAxM9cJTUFfuu8UhNSXuXgxp3qgPBHNjCG4SUWbLt0bDSbo3GlwMHCnwTSjOw121ncanMnca2z4WDKTY8/4kraAxSnja6HZ4UAO/nSNaWXumEbCSljMuw1FrKoCFbdvuH08GGKRnyQF5Vhxupx+MSDZnknRZ7WEMFtK/PsaocWkzPR6tSvnocuIyz70rZtwXFeqhNyQYycHNc1xjsOOESyeq0UMwZe7dpxjapNZ7bGO1UxDPaZrMWkcs8+iqdAai0GHr7h3aFhxXG3Wskqc4s/kXnpgDXHxgOQdNgFB1Ayzxx1pX5KtnnZtAarA03CGazHpfEVX/ieNB1yJtqRXKGKdoZ/hAuTeT/D3HZYg2G3nEQqLvCFkA27UHFGN8eJP0Cq5dM4+gpa1TyUO2UMST3QBZPINGeOs7hL3xaohSkDVZR1MN7STI1nyIisxqUH7mxr66R41wxydV8ldoMUyY5xbPNDg9m6zQkLMGBOJdGbntHc04BVt7ngvO0LYflJcauX+9A1+AkPiapsj7ZsCzXhYM56E/pSRn2heWZvgM7YVVzeXbDLDxEIRQYDXnAruf5XjvZp/qOaWlG5oCoQaVTe/dDZkyBeXCq3mH+5D1uklHXkCFjgrrtux9a0012bfcVkt+BfH/sib7xX8rI2BAVZJ7qUHAiiWiUlfzSNvvle4yBBPCnS8s9+HiYT37MfUMOEwu+mNK2eBs5QdXj550Nqaj+BmCxBqlB0H8ikXvNe4G/JAZZccXKsztyqkeadAs0MdqLPWlSes6nABnjuR/DQCBmpT1RGFu3EeWRPqdVzpG9zczclDyxa7zA15oMO06F9JFeh8Lwa9Gw1DDL44XGM+I+zR9SBuxkisCatu4g6lKNE1pUyuWkYfO7D5jkVpFpMLF4vf3lSB0l1T0CFADc139ExonlodoxsjwU280Y2kXI4aDp8p6I3bNPy5ESaFy0FujQriusPtWuEuAq3UPPpy7sNibWWdmdm7bhJORpi5a1z/qPTcB6DOGyYeH+ECq4SgtMtkVupObCNNxmbkwe1ufwMClOXMcp7kCZct2hljOQaxX7Pmt2NgG1fW6HwMZH84csDo7D8U7Bk8cMHPgKy4X8nlkTwxPKrv2KTC0SWFPJ0h6vkcfD5d/rXaOXAmqz4/symDYphr5iict6BkyjWJBGfQSpjWuTfMjbXvFZG24HCzgjiBqzBsZ8qq/G5mrcrvZuKK/HbmrsrvZvqq/G5msNzfxjNTvTx3Pbv92s5U1t+lYCKN89d1bmb0Cndo4REoL3XY2hAfdPdxzcymgEObqWrmuE+RhxoRyo5aqS6bLEjXp3Bnvmt+WzPRQT67GfAMtWRdz8cvi7zxj8J6WjPjceaulvs23RjanPPI39/EJ1o0Z7aD4y5knhE+FG5YUwhwRqzO7Of7OLVuZ4k4TgINroa/GWIfFXxLPAQwOgznsWjv8hJtqOIYIrofHkg8ECZW/a2VxLPkLN2THHeRuimR6VoZXJaGUtapByNu5nSGGxYZ4VCrrUsIhh1D0UXQctQ5/P2EaxEvhYqXLRW1posvSNGlw0vW+F7+zRtdpYzsjtWMKo+UEJzwGV/k4n1yczpjxAaQdYPlpQP6nJwdLrubfqqQD8bU2XUsMH6T/Yg0tGFm0rXuiJBsyQrsNeRblKpBdUNzUYYLorhDJrgBVTzaMnnGP1YnHHuZMY/qZngxC7E6zixPUmtR14cL0RZSKiuIy2hFfRTHsM1NNdjLu+ehKp3rAGcf3tz9Kniel7zuF2E2rSgzpvAY0jt5iolunodymrv3pRjzbj3Jky157Ugnv9SKIqObHy/8sz92uJW3fzx+WfGnT7/88u2HGZ//v/4So/3p26845u//Cw==);lineShape=1;fontSize=7;" parent="1" vertex="1">
                    <mxGeometry x="60.121124246108366" y="-801.5863631038624" width="23.492883245073052" height="29.617637402107178" as="geometry"/>
                </mxCell>
                <mxCell id="89" value="rsubtree" style="text;html=1;align=center;verticalAlign=middle;resizable=0;points=[];autosize=1;strokeColor=none;fillColor=none;fontSize=7;" parent="1" vertex="1">
                    <mxGeometry x="83.60999999999999" y="-779.86" width="50" height="20" as="geometry"/>
                </mxCell>
                <mxCell id="90" value="lsubtree" style="text;html=1;align=center;verticalAlign=middle;resizable=0;points=[];autosize=1;strokeColor=none;fillColor=none;fontSize=7;" parent="1" vertex="1">
                    <mxGeometry x="44.999999999999986" y="-774.24" width="50" height="20" as="geometry"/>
                </mxCell>
            </root>
        </mxGraphModel>
    </diagram>
</mxfile>